<?xml version="1.0" encoding="UTF-8" standalone="no"?>
<svg xmlns="http://www.w3.org/2000/svg"
     xmlns:xlink="http://www.w3.org/1999/xlink"
     width="642px" height="257px" viewBox="0 0 642 257">
<title>glps_renderer figure</title>
<desc>
Creator: GL2PS 1.3.8, (C) 1999-2012 C. Geuzaine
For: Octave
CreationDate: Tue Feb  2 17:34:59 2016
</desc>
<defs>
</defs>
<g shape-rendering="crispEdges">
<polygon fill="#ffffff" points="83.4595,202.323 581.009,202.323 83.4595,11.2624"/>
<polygon fill="#ffffff" points="581.009,202.323 581.009,11.2624 83.4595,11.2624"/>
<polyline fill="none" stroke="#000000" stroke-width="0.5" stroke-dasharray="16,0" points="83.4595,202.323 581.009,202.323"/>
<polyline fill="none" stroke="#000000" stroke-width="0.5" stroke-dasharray="16,0" points="83.4595,11.2624 581.009,11.2624"/>
<polyline fill="none" stroke="#000000" stroke-width="0.5" stroke-dasharray="16,0" points="83.4595,11.2624 581.009,11.2624"/>
<polyline fill="none" stroke="#000000" stroke-width="0.5" stroke-dasharray="16,0" points="83.4595,202.323 581.009,202.323"/>
<polyline fill="none" stroke="#000000" stroke-width="0.5" stroke-dasharray="16,0" points="83.4595,202.323 83.4595,11.2624"/>
<polyline fill="none" stroke="#000000" stroke-width="0.5" stroke-dasharray="16,0" points="581.009,202.323 581.009,11.2624"/>
<polyline fill="none" stroke="#000000" stroke-width="0.5" stroke-dasharray="16,0" points="581.009,202.323 581.009,11.2624"/>
<polyline fill="none" stroke="#000000" stroke-width="0.5" stroke-dasharray="16,0" points="83.4595,202.323 83.4595,11.2624 83.4595,11.2624"/>
<polyline fill="none" stroke="#000000" stroke-width="0.5" stroke-dasharray="16,0" points="581.009,11.2624 581.009,11.2624"/>
<polyline fill="none" stroke="#000000" stroke-width="0.5" stroke-dasharray="16,0" points="581.009,202.323 581.009,202.323"/>
<polyline fill="none" stroke="#000000" stroke-width="0.5" stroke-dasharray="16,0" points="83.4595,202.323 83.4595,202.323"/>
<polyline fill="none" stroke="#000000" stroke-width="0.5" stroke-dasharray="16,0" points="107.402,202.323 107.402,197.346"/>
<polyline fill="none" stroke="#000000" stroke-width="0.5" stroke-dasharray="16,0" points="107.402,11.2624 107.402,16.2394"/>
<polyline fill="none" stroke="#000000" stroke-width="0.5" stroke-dasharray="16,0" points="174.644,202.323 174.644,197.346"/>
<polyline fill="none" stroke="#000000" stroke-width="0.5" stroke-dasharray="16,0" points="174.644,11.2624 174.644,16.2394"/>
<polyline fill="none" stroke="#000000" stroke-width="0.5" stroke-dasharray="16,0" points="241.885,202.323 241.885,197.346"/>
<polyline fill="none" stroke="#000000" stroke-width="0.5" stroke-dasharray="16,0" points="241.885,11.2624 241.885,16.2394"/>
<polyline fill="none" stroke="#000000" stroke-width="0.5" stroke-dasharray="16,0" points="309.127,202.323 309.127,197.346"/>
<polyline fill="none" stroke="#000000" stroke-width="0.5" stroke-dasharray="16,0" points="309.127,11.2624 309.127,16.2394"/>
<polyline fill="none" stroke="#000000" stroke-width="0.5" stroke-dasharray="16,0" points="376.369,202.323 376.369,197.346"/>
<polyline fill="none" stroke="#000000" stroke-width="0.5" stroke-dasharray="16,0" points="376.369,11.2624 376.369,16.2394"/>
<polyline fill="none" stroke="#000000" stroke-width="0.5" stroke-dasharray="16,0" points="443.61,202.323 443.61,197.346"/>
<polyline fill="none" stroke="#000000" stroke-width="0.5" stroke-dasharray="16,0" points="443.61,11.2624 443.61,16.2394"/>
<polyline fill="none" stroke="#000000" stroke-width="0.5" stroke-dasharray="16,0" points="510.852,202.323 510.852,197.346"/>
<polyline fill="none" stroke="#000000" stroke-width="0.5" stroke-dasharray="16,0" points="510.852,11.2624 510.852,16.2394"/>
<polyline fill="none" stroke="#000000" stroke-width="0.5" stroke-dasharray="16,0" points="578.094,202.323 578.094,197.346"/>
<polyline fill="none" stroke="#000000" stroke-width="0.5" stroke-dasharray="16,0" points="578.094,11.2624 578.094,16.2394"/>
<text fill="#000000" x="107.402" y="207.325" font-size="10" text-anchor="middle" baseline-shift="-10" font-family="Helvetica">0.238</text>
<text fill="#000000" x="174.644" y="207.325" font-size="10" text-anchor="middle" baseline-shift="-10" font-family="Helvetica">0.24</text>
<text fill="#000000" x="241.885" y="207.325" font-size="10" text-anchor="middle" baseline-shift="-10" font-family="Helvetica">0.242</text>
<text fill="#000000" x="309.127" y="207.325" font-size="10" text-anchor="middle" baseline-shift="-10" font-family="Helvetica">0.244</text>
<text fill="#000000" x="376.369" y="207.325" font-size="10" text-anchor="middle" baseline-shift="-10" font-family="Helvetica">0.246</text>
<text fill="#000000" x="443.61" y="207.325" font-size="10" text-anchor="middle" baseline-shift="-10" font-family="Helvetica">0.248</text>
<text fill="#000000" x="510.852" y="207.325" font-size="10" text-anchor="middle" baseline-shift="-10" font-family="Helvetica">0.25</text>
<text fill="#000000" x="578.094" y="207.325" font-size="10" text-anchor="middle" baseline-shift="-10" font-family="Helvetica">0.252</text>
<polyline fill="none" stroke="#000000" stroke-width="0.5" stroke-dasharray="16,0" points="83.4595,195.338 88.4304,195.338"/>
<polyline fill="none" stroke="#000000" stroke-width="0.5" stroke-dasharray="16,0" points="581.009,195.338 576.038,195.338"/>
<polyline fill="none" stroke="#000000" stroke-width="0.5" stroke-dasharray="16,0" points="83.4595,165.456 88.4304,165.456"/>
<polyline fill="none" stroke="#000000" stroke-width="0.5" stroke-dasharray="16,0" points="581.009,165.456 576.038,165.456"/>
<polyline fill="none" stroke="#000000" stroke-width="0.5" stroke-dasharray="16,0" points="83.4595,135.574 88.4304,135.574"/>
<polyline fill="none" stroke="#000000" stroke-width="0.5" stroke-dasharray="16,0" points="581.009,135.574 576.038,135.574"/>
<polyline fill="none" stroke="#000000" stroke-width="0.5" stroke-dasharray="16,0" points="83.4595,105.692 88.4304,105.692"/>
<polyline fill="none" stroke="#000000" stroke-width="0.5" stroke-dasharray="16,0" points="581.009,105.692 576.038,105.692"/>
<polyline fill="none" stroke="#000000" stroke-width="0.5" stroke-dasharray="16,0" points="83.4595,75.8094 88.4304,75.8094"/>
<polyline fill="none" stroke="#000000" stroke-width="0.5" stroke-dasharray="16,0" points="581.009,75.8094 576.038,75.8094"/>
<polyline fill="none" stroke="#000000" stroke-width="0.5" stroke-dasharray="16,0" points="83.4595,45.9271 88.4304,45.9271"/>
<polyline fill="none" stroke="#000000" stroke-width="0.5" stroke-dasharray="16,0" points="581.009,45.9271 576.038,45.9271"/>
<polyline fill="none" stroke="#000000" stroke-width="0.5" stroke-dasharray="16,0" points="83.4595,16.0449 88.4304,16.0449"/>
<polyline fill="none" stroke="#000000" stroke-width="0.5" stroke-dasharray="16,0" points="581.009,16.0449 576.038,16.0449"/>
<text fill="#000000" x="78.464" y="195.338" font-size="10" text-anchor="end" baseline-shift="-5" font-family="Helvetica">-0.15</text>
<text fill="#000000" x="78.464" y="165.456" font-size="10" text-anchor="end" baseline-shift="-5" font-family="Helvetica">-0.1</text>
<text fill="#000000" x="78.464" y="135.574" font-size="10" text-anchor="end" baseline-shift="-5" font-family="Helvetica">-0.05</text>
<text fill="#000000" x="78.464" y="105.692" font-size="10" text-anchor="end" baseline-shift="-5" font-family="Helvetica">0</text>
<text fill="#000000" x="78.464" y="75.8094" font-size="10" text-anchor="end" baseline-shift="-5" font-family="Helvetica">0.05</text>
<text fill="#000000" x="78.464" y="45.9271" font-size="10" text-anchor="end" baseline-shift="-5" font-family="Helvetica">0.1</text>
<text fill="#000000" x="78.464" y="16.0449" font-size="10" text-anchor="end" baseline-shift="-5" font-family="Helvetica">0.15</text>
<text fill="#000000" x="332.235" y="220.325" font-size="10" text-anchor="middle" baseline-shift="-10" font-family="Helvetica">Tiempo (s)</text>
<text fill="#000000" x="49.4638" y="106.793" font-size="10" transform="rotate(-90, 49.4638, 106.793)" text-anchor="middle" baseline-shift="0" font-family="Helvetica">Amplitud WAV</text>
<polyline fill="none" stroke="#ff0000" stroke-width="2" points="82.963,57.8626 83.1588,57.6145 83.9211,57.5962 84.6834,56.9396 85.4456,56.7025 86.2079,54.5139 86.9708,55.0793 87.733,52.2158 88.4953,49.7719 89.2576,47.0725 90.0198,45.4857 90.7827,42.8959 91.5443,38.7375 92.3072,38.1173 93.0695,34.6338 93.8324,31.369 94.594,29.4722 95.3569,28.1773 96.1191,26.0433 96.8814,24.8578 97.6437,23.8365 98.4059,23.5994 99.1688,25.1314 99.9311,26.3352 100.693,25.9704 101.456,27.0829 102.218,28.4691 102.981,29.6911 103.743,31.9162 104.505,34.1048 105.268,36.8224 106.03,38.6827 106.792,41.455 107.555,42.8959 108.317,46.4342 109.079,47.565 109.842,50.5014 110.604,52.307 111.367,56.2648 112.128,60.2226 112.891,64.4722 113.654,69.3419 114.417,71.6217 115.178,77.0386 115.941,82.5832 116.703,88.1642 117.466,93.2528 118.228,98.5055 118.99,104.342 119.753,107.99 120.515,111.4 121.277,115.194 122.04,118.969 122.803,122.052 123.565,123.146 124.327,125.335 125.089,126.155 125.852,126.739 126.615,126.94 127.376,127.815 128.139,127.997 128.901,127.414 129.664,126.775 130.426,127.013 131.188,126.429 131.951,126.648 132.713,127.359 133.476,126.885 134.238,127.596 135.001,126.137 135.762,125.663 136.525,124.514 137.287,123.985 138.05,124.569 138.812,124.24 139.574,123.967 140.337,124.514 141.099,123.93 141.862,123.584 142.624,124.076 143.387,122.836 144.149,121.979 144.911,121.213 145.674,120.866 146.436,119.863 147.199,117.82 147.96,117.82 148.723,117.364 149.485,117.054 150.248,117.857 151.01,117.2 151.772,116.398 152.535,116.161 153.297,115.978 154.06,115.249 154.822,115.486 155.585,115.358 156.347,114.866 157.109,114.483 157.872,112.659 158.634,110.963 159.397,109.339 160.158,107.059 160.921,103.704 161.684,101.424 162.446,99.3445 163.208,96.5358 163.97,94.949 164.733,91.7025 165.495,88.146 166.258,85.7385 167.02,82.0543 167.783,78.4977 168.544,73.8651 169.307,71.8041 170.07,68.5577 170.832,66.0954 171.594,63.8521 172.356,63.5238 173.119,63.6515 173.882,65.1105 174.644,66.0225 175.406,67.3904 176.169,68.4482 176.931,70.6733 177.693,73.3544 178.456,76.3638 179.218,81.5618 179.981,86.3951 180.743,90.8453 181.505,96.9553 182.268,101.314 183.03,108.391 183.792,113.224 184.554,118.878 185.317,124.605 186.08,129.402 186.842,136.205 187.604,140.856 188.367,146.181 189.129,150.522 189.891,155.921 190.654,160.48 191.416,165.569 192.178,168.98 192.941,173.558 193.703,178.446 194.466,180.871 195.228,184.665 195.99,186.507 196.753,188.951 197.515,189.681 198.277,190.994 199.04,191.523 199.802,190.957 200.565,189.735 201.327,189.079 202.09,187.747 202.852,185.796 203.614,184.683 204.376,183.498 205.139,181.473 205.901,179.102 206.664,178.555 207.426,175.965 208.188,172.7 208.951,171.168 209.713,168.743 210.476,165.405 211.238,163.289 212,160.408 212.763,157.799 213.525,155.629 214.288,154.334 215.05,152.237 215.812,150.759 216.574,148.388 217.337,146.546 218.099,145.762 218.861,143.446 219.624,141.421 220.386,139.287 221.149,138.175 221.911,136.898 222.674,135.822 223.436,136.241 224.198,134.217 224.96,133.889 225.723,133.852 226.486,132.284 227.248,132.211 228.01,131.864 228.772,130.916 229.535,129.292 230.298,127.76 231.06,128.216 231.822,125.426 232.584,122.909 233.347,122.015 234.109,119.097 234.872,118.24 235.634,118.55 236.396,116.835 237.158,116.325 237.921,115.54 238.684,114.592 239.446,114.118 240.208,113.571 240.97,115.65 241.733,115.066 242.495,114.902 243.258,115.322 244.02,116.671 244.782,117.747 245.545,117.601 246.307,117.839 247.07,118.805 247.832,119.188 248.594,120.556 249.357,120.045 250.119,120.337 250.882,120.757 251.643,120.793 252.406,122.052 253.168,120.21 253.931,120.155 254.693,118.732 255.456,117.456 256.218,115.942 256.98,114.318 257.743,112.604 258.505,110.543 259.268,108.756 260.03,106.184 260.792,105.4 261.555,104.178 262.317,103.704 263.08,101.624 263.842,101.387 264.604,100.767 265.366,100.202 266.129,99.7275 266.891,99.308 267.654,99.5999 268.416,97.5206 269.178,96.7911 269.941,96.0433 270.703,92.8698 271.466,91.4107 272.227,89.1491 272.99,85.8844 273.753,83.6775 274.515,81.3065 275.277,77.3122 276.04,74.3211 276.802,71.9865 277.565,69.5061 278.327,66.9162 279.089,65.4571 279.852,64.2533 280.614,63.232 281.376,63.3414 282.139,63.0313 282.902,62.5936 283.664,63.4873 284.426,63.5967 285.188,63.0313 285.951,61.6452 286.714,58.2163 287.475,55.0246 288.238,53.3466 289,50.6108 289.763,47.2549 290.525,44.738 291.287,42.294 292.05,39.0293 292.812,37.2054 293.574,32.3357 294.337,30.7489 295.1,28.925 295.861,27.4113 296.624,26.6452 297.386,25.478 298.149,25.6056 298.911,23.873 299.673,24.6937 300.436,25.478 301.198,25.4962 301.961,27.2471 302.723,28.688 303.486,29.9282 304.248,30.8766 305.01,33.3388 305.773,34.7067 306.535,36.4941 307.298,37.8802 308.059,39.7953 308.822,42.294 309.584,43.7348 310.347,44.8839 311.109,47.3826 311.871,50.4832 312.634,54.7692 313.396,58.727 314.159,62.7213 314.921,67.4268 315.684,72.9349 316.446,77.677 317.208,83.9511 317.971,89.7327 318.733,95.4232 319.496,98.5238 320.257,102.828 321.02,107.898 321.782,111.236 322.545,114.282 323.307,116.708 324.069,119.334 324.832,120.611 325.594,121.869 326.357,122.781 327.119,123.365 327.882,124.86 328.643,124.733 329.406,126.319 330.169,127.414 330.931,126.265 331.693,127.596 332.455,128.38 333.218,128.563 333.98,127.523 334.743,125.936 335.505,125.663 336.268,124.587 337.03,124.569 337.792,123.438 338.555,122.252 339.317,122.982 340.08,121.687 340.841,121.76 341.604,121.249 342.367,121.596 343.129,120.21 343.891,118.915 344.653,117.766 345.416,118.003 346.179,116.58 346.941,115.194 347.703,116.398 348.466,114.574 349.228,115.449 349.99,115.741 350.753,115.978 351.515,115.467 352.277,114.464 353.04,115.121 353.802,115.066 354.565,114.647 355.327,115.559 356.089,115.577 356.852,114.884 357.614,113.698 358.376,113.571 359.139,113.005 359.901,112.75 360.664,110.379 361.426,109.175 362.188,105.765 362.951,102.919 363.713,101.278 364.475,98.086 365.238,93.7635 366,90.0975 366.763,87.0881 367.525,82.7838 368.287,78.9902 369.05,74.6311 369.812,71.5488 370.575,70.3815 371.337,66.7338 372.099,66.0772 372.862,64.9829 373.624,62.776 374.387,62.2653 375.149,62.1377 375.911,61.5358 376.673,62.6666 377.436,65.3477 378.198,67.135 378.96,70.0168 379.723,73.5186 380.485,79.3914 381.248,83.2033 382.01,87.3435 382.773,92.7604 383.535,97.3565 384.297,103.649 385.059,108.792 385.822,114.464 386.585,121.669 387.347,127.633 388.109,133.724 388.871,139.014 389.634,145.361 390.396,152.583 391.159,156.176 391.921,161.247 392.683,166.937 393.446,169.582 394.208,173.266 394.971,176.986 395.733,180.087 396.495,183.078 397.257,183.771 398.02,184.647 398.783,184.884 399.545,185.285 400.307,186.033 401.069,185.212 401.832,185.34 402.595,185.449 403.357,185.03 404.119,183.935 404.881,184.574 405.644,183.607 406.406,181.364 407.169,180.598 407.931,178.409 408.693,176.385 409.456,173.631 410.218,172.099 410.981,168.889 411.742,164.767 412.505,162.852 413.267,159.952 414.03,157.526 414.792,155.52 415.555,152.857 416.317,150.54 417.079,148.771 417.842,145.944 418.604,143.5 419.367,142.661 420.129,139.962 420.891,138.503 421.654,137.956 422.416,136.788 423.179,136.241 423.941,136.022 424.703,136.697 425.465,135.658 426.228,136.077 426.99,133.816 427.753,133.031 428.515,131.809 429.278,130.697 430.04,129.092 430.802,128.308 431.565,127.596 432.326,125.335 433.089,123.967 433.852,121.669 434.614,120.082 435.376,118.513 436.139,116.927 436.901,116.416 437.663,115.449 438.426,113.717 439.188,112.987 439.951,112.039 440.713,111.783 441.475,112.13 442.238,110.89 443.001,111.181 443.763,112.276 444.525,113.844 445.287,115.668 446.05,117.109 446.812,117.583 447.574,118.896 448.337,120.629 449.099,121.249 449.862,122.964 450.624,123.438 451.386,125.079 452.149,124.113 452.911,123.803 453.673,122.927 454.436,122.015 455.199,121.304 455.961,120.447 456.723,119.626 457.485,117.31 458.248,116.544 459.01,114.793 459.772,112.568 460.535,110.306 461.297,108.026 462.06,108.227 462.822,105.965 463.585,106.038 464.347,104.816 465.109,103.922 465.871,103.284 466.634,101.46 467.397,100.877 468.158,99.5634 468.921,98.7062 469.683,97.0647 470.446,94.6025 471.208,93.6723 471.97,89.8969 472.733,88.073 473.495,86.4133 474.258,84.2247 475.02,80.2122 475.783,78.1329 476.545,75.4701 477.307,72.8073 478.07,71.2205 478.832,70.418 479.595,69.0683 480.356,68.3935 481.119,66.4602 481.881,64.7093 482.644,65.5118 483.406,65.2382 484.168,65.2382 484.931,64.4357 485.693,63.8156 486.456,62.8307 487.218,60.4232 487.981,58.4899 488.742,56.356 489.505,54.1491 490.268,49.2794 491.03,45.8141 491.792,41.8015 492.554,39.6129 493.317,37.1324 494.079,32.3174 494.842,31.4602 495.604,29.0527 496.367,28.4144 497.129,26.244 497.891,26.4081 498.654,26.2805 499.416,25.1497 500.179,25.8974 500.94,25.5691 501.703,26.6635 502.466,26.0251 503.228,26.6452 503.99,27.1559 504.752,27.0829 505.515,27.9037 506.278,29.6181 507.04,30.3294 507.802,31.9709 508.565,32.0256 509.327,33.2659 510.089,36.0928 510.852,38.5733 511.614,40.8896 512.377,44.5191 513.139,48.1668 513.901,52.1976 514.663,57.5415 515.426,61.7729 516.188,66.8979 516.951,71.6217 517.713,76.4368 518.476,81.5801 519.238,87.6535 519.999,92.6509 520.762,96.3351 521.525,100.585 522.287,103.667 523.05,105.783 523.812,109.886 524.575,112.075 525.337,113.808 526.099,116.945 526.861,118.513 527.624,120.191 528.386,121.286 529.149,122.69 529.911,124.623 530.674,124.86 531.436,125.827 532.198,125.426 532.96,125.189 533.723,124.769 534.485,125.426 535.248,126.009 536.011,125.499 536.773,125.736 537.535,125.626 538.297,125.353 539.059,125.28 539.822,124.295 540.584,124.496 541.347,123.821 542.109,123.784 542.872,123.201 543.633,121.614 544.396,121.158 545.158,120.027 545.921,118.568 546.684,118.149 547.446,117.072 548.209,115.978 548.971,116.817 549.733,116.835 550.495,116.58 551.258,116.306 552.02,117.273 552.782,118.185 553.545,117.273 554.307,117.638 555.07,117.328 555.831,116.161 556.594,116.489 557.356,116.215 558.119,116.744 558.882,115.65 559.644,114.72 560.407,113.862 561.169,113.133 561.931,110.78 562.693,109.376 563.456,106.275 564.218,103.393 564.98,99.9646 565.743,96.9553 566.505,94.5477 567.267,89.4409 568.029,85.7567 568.792,82.2914 569.554,79.0449 570.317,75.0141 571.08,72.6614 571.842,70.1627 572.605,67.4268 573.366,66.4055 574.129,64.5634 574.891,64.1439 575.654,62.6301 576.416,62.2836 577.178,61.9553 577.941,63.0131 578.703,65.3477 579.465,66.6791 580.227,68.9771 580.99,72.9349 581.508,75.1647"/>
<polyline fill="none" stroke="#00b200" stroke-width="2" points="82.963,53.1071 83.1588,53.2007 83.9211,52.307 84.6834,49.7901 85.4456,50.9756 86.2079,49.5712 86.9708,50.775 87.733,50.7385 88.4953,50.5379 89.2576,48.0209 90.0198,46.2518 90.7827,45.7229 91.5443,43.1877 92.3072,42.0387 93.0695,40.4701 93.8324,37.0595 94.594,34.6155 95.3569,32.5181 96.1191,30.5118 96.8814,27.1741 97.6437,25.9157 98.4059,25.5509 99.1688,25.7515 99.9311,26.5358 100.693,27.1559 101.456,27.5207 102.218,29.5999 102.981,29.454 103.743,32.2263 104.505,34.3602 105.268,35.108 106.03,39.7406 106.792,40.9079 107.555,43.7713 108.317,46.5436 109.079,48.0027 109.842,50.3737 110.604,51.7781 111.367,56.9032 112.128,60.0402 112.891,64.6364 113.654,66.6061 114.417,71.3664 115.178,74.5764 115.941,80.0845 116.703,86.6139 117.466,90.8271 118.228,97.1559 118.99,101.132 119.753,109.741 120.515,114.446 121.277,120.556 122.04,123.839 122.803,127.122 123.565,133.36 124.327,133.159 125.089,139.707 125.852,140.728 126.615,141.403 127.376,143.172 128.139,142.953 128.901,142.315 129.664,142.315 130.426,143.081 131.188,140.582 131.951,139.415 132.713,137.08 133.476,137.5 134.238,139.634 135.001,138.849 135.762,137.609 136.525,133.287 137.287,134.144 138.05,132.448 138.812,133.25 139.574,133.67 140.337,130.113 141.099,131.809 141.862,129.767 142.624,129.219 143.387,128.745 144.149,127.341 144.911,125.098 145.674,124.55 146.436,125.116 147.199,122.763 147.96,122.471 148.723,119.279 149.485,119.188 150.248,121.322 151.01,118.039 151.772,118.003 152.535,116.945 153.297,114.902 154.06,114.592 154.822,113.68 155.585,115.121 156.347,114.556 157.109,114.629 157.872,112.44 158.634,114.592 159.397,110.853 160.158,108.865 160.921,109.412 161.684,107.442 162.446,105.509 163.208,103.576 163.97,97.9949 164.733,95.2226 165.495,90.7723 166.258,88.2554 167.02,85.1731 167.783,81.2882 168.544,76.6191 169.307,72.3148 170.07,67.5181 170.832,65.0923 171.594,63.9798 172.356,58.1981 173.119,56.8667 173.882,54.2403 174.644,53.4743 175.406,52.1429 176.169,49.9542 176.931,50.5561 177.693,50.7567 178.456,54.295 179.218,57.0855 179.981,60.9521 180.743,63.998 181.505,65.7489 182.268,74.3758 183.03,78.2971 183.792,86.3951 184.554,91.3377 185.317,95.2043 186.08,101.606 186.842,109.978 187.604,121.121 188.367,128.782 189.129,134.49 189.891,139.725 190.654,147.075 191.416,155.72 192.178,160.48 192.941,165.314 193.703,169.363 194.466,174.214 195.228,176.293 195.99,180.233 196.753,184.774 197.515,187.072 198.277,188.659 199.04,188.969 199.802,190.538 200.565,193.073 201.327,193.511 202.09,191.705 202.852,191.34 203.614,190.976 204.376,189.571 205.139,188.915 205.901,185.796 206.664,184.793 207.426,183.133 208.188,182.13 208.951,179.649 209.713,178.3 210.476,173.594 211.238,172.682 212,170.767 212.763,167.174 213.525,167.01 214.288,162.687 215.05,160.572 215.812,157.489 216.574,152.693 217.337,151.27 218.099,148.516 218.861,146.054 219.624,143.172 220.386,144.467 221.149,140.254 221.911,137.281 222.674,137.135 223.436,134.253 224.198,134.363 224.96,133.578 225.723,133.287 226.486,131.171 227.248,130.332 228.01,129.712 228.772,129.949 229.535,132.685 230.298,128.891 231.06,127.304 231.822,127.067 232.584,124.222 233.347,122.654 234.109,121.121 234.872,119.444 235.634,116.598 236.396,114.92 237.158,113.68 237.921,113.224 238.684,111.273 239.446,107.971 240.208,109.303 240.97,107.588 241.733,109.85 242.495,111.546 243.258,110.89 244.02,111.273 244.782,111.273 245.545,114.227 246.307,116.653 247.07,117.51 247.832,116.854 248.594,119.626 249.357,120.191 250.119,122.416 250.882,124.897 251.643,124.97 252.406,125.28 253.168,122.617 253.931,124.277 254.693,125.243 255.456,125.426 256.218,122.891 256.98,122.088 257.743,120.264 258.505,117.729 259.268,117.583 260.03,114.501 260.792,112.878 261.555,109.814 262.317,109.485 263.08,107.424 263.842,106.585 264.604,107.661 265.366,103.156 266.129,103.12 266.891,102.555 267.654,106.038 268.416,102.463 269.178,101.497 269.941,100.165 270.703,98.4326 271.466,98.6332 272.227,93.6358 272.99,91.2101 273.753,89.295 274.515,84.3341 275.277,79.1908 276.04,77.294 276.802,75.8349 277.565,70.2721 278.327,66.7338 279.089,63.3049 279.852,63.0678 280.614,60.4415 281.376,58.9459 282.139,56.9761 282.902,56.9214 283.664,56.5931 284.426,56.5749 285.188,57.0855 285.951,58.8 286.714,58.0522 287.475,55.2617 288.238,55.6264 289,54.368 289.763,53.985 290.525,51.7416 291.287,49.863 292.05,47.8568 292.812,41.838 293.574,40.0324 294.337,34.8161 295.1,34.1231 295.861,30.7672 296.624,27.5389 297.386,26.7364 298.149,27.2836 298.911,28.1043 299.673,26.8641 300.436,27.5754 301.198,26.9918 301.961,27.1924 302.723,30.0194 303.486,28.9798 304.248,31.3326 305.01,34.1048 305.773,34.7067 306.535,37.935 307.298,38.5551 308.059,40.4154 308.822,41.3273 309.584,43.0235 310.347,46.7442 311.109,49.3524 311.871,53.7114 312.634,53.4013 313.396,58.3622 314.159,61.4811 314.921,65.5848 315.684,71.1111 316.446,74.1022 317.208,80.3398 317.971,85.6108 318.733,92.4685 319.496,97.2106 320.257,101.916 321.02,107.315 321.782,113.461 322.545,120.428 323.307,126.228 324.069,129.219 324.832,130.168 325.594,134.18 326.357,135.731 327.119,139.141 327.882,138.849 328.643,140.673 329.406,141.129 330.169,140.418 330.931,140.509 331.693,139.907 332.455,138.74 333.218,136.752 333.98,139.834 334.743,141.348 335.505,140.856 336.268,140.692 337.03,135.603 337.792,137.627 338.555,137.317 339.317,136.041 340.08,133.451 340.841,130.35 341.604,128.599 342.367,128.508 343.129,129.384 343.891,128.107 344.653,127.323 345.416,123.237 346.179,121.669 346.941,122.106 347.703,121.979 348.466,121.96 349.228,119.681 349.99,119.772 350.753,117.966 351.515,115.504 352.277,116.981 353.04,115.595 353.802,115.066 354.565,114.027 355.327,116.361 356.089,116.835 356.852,117.127 357.614,114.738 358.376,114.738 359.139,115.467 359.901,114.756 360.664,114.829 361.426,113.388 362.188,110.652 362.951,108.592 363.713,104.543 364.475,104.834 365.238,102.992 366,98.9615 366.763,95.7333 367.525,92.2679 368.287,86.3951 369.05,81.1241 369.812,76.3456 370.575,69.4696 371.337,68.8495 372.099,62.6301 372.862,59.6754 373.624,58.4717 374.387,55.9365 375.149,54.7328 375.911,50.5379 376.673,52.0882 377.436,48.4039 378.198,51.1397 378.96,50.4649 379.723,51.8875 380.485,55.8453 381.248,56.7572 382.01,60.6786 382.773,63.6515 383.535,68.6124 384.297,73.7374 385.059,80.5222 385.822,86.5227 386.585,93.4717 387.347,102.281 388.109,109.959 388.871,118.805 389.634,124.86 390.396,131.627 391.159,136.788 391.921,147.768 392.683,152.127 393.446,159.441 394.208,164.384 394.971,167.667 395.733,174.944 396.495,176.676 397.257,182.622 398.02,182.203 398.783,185.923 399.545,187.255 400.307,186.252 401.069,188.112 401.832,184.647 402.595,188.039 403.357,187.054 404.119,186.617 404.881,187.583 405.644,185.486 406.406,185.139 407.169,183.972 407.931,183.717 408.693,181.729 409.456,182.495 410.218,178.701 410.981,177.625 411.742,177.953 412.505,173.321 413.267,170.804 414.03,168.195 414.792,164.767 415.555,162.104 416.317,159.605 417.079,153.459 417.842,151.306 418.604,152.018 419.367,146.802 420.129,146.163 420.891,142.534 421.654,140.746 422.416,138.412 423.179,137.938 423.941,135.147 424.703,136.478 425.465,138.156 426.228,134.272 426.99,136.405 427.753,137.427 428.515,134.344 429.278,133.651 430.04,133.597 430.802,131.718 431.565,131.609 432.326,130.259 433.089,125.772 433.852,126.52 434.614,123.182 435.376,119.717 436.139,116.161 436.901,117.547 437.663,113.242 438.426,110.543 439.188,112.221 439.951,109.303 440.713,109.358 441.475,106.987 442.238,106.768 443.001,107.716 443.763,107.388 444.525,109.868 445.287,110.397 446.05,113.297 446.812,115.322 447.574,114.847 448.337,119.553 449.099,122.38 449.862,122.544 450.624,127.487 451.386,127.924 452.149,129.73 452.911,131.372 453.673,131.609 454.436,132.521 455.199,130.569 455.961,130.843 456.723,129.584 457.485,127.888 458.248,127.742 459.01,125.809 459.772,121.705 460.535,119.735 461.297,120.465 462.06,117.456 462.822,114.191 463.585,114.245 464.347,112.349 465.109,111.51 465.871,109.978 466.634,106.64 467.397,107.971 468.158,107.479 468.921,106.22 469.683,104.962 470.446,103.357 471.208,100.348 471.97,96.9735 472.733,96.2987 473.495,92.6144 474.258,89.4774 475.02,87.7265 475.783,82.3279 476.545,78.3153 477.307,74.9412 478.07,71.5853 478.832,68.43 479.595,67.1898 480.356,64.3628 481.119,62.2471 481.881,63.1225 482.644,61.9735 483.406,62.0829 484.168,60.7515 484.931,60.2408 485.693,60.8245 486.456,58.8182 487.218,60.0402 487.981,59.7666 488.742,59.0188 489.505,59.2924 490.268,55.0063 491.03,52.6535 491.792,49.2429 492.554,47.1455 493.317,44.8474 494.079,41.7286 494.842,39.5035 495.604,34.1413 496.367,32.281 497.129,28.7974 497.891,28.7427 498.654,26.9006 499.416,26.4993 500.179,25.9704 500.94,28.2137 501.703,27.5936 502.466,28.4509 503.228,30.0376 503.99,30.9496 504.752,32.2445 505.515,31.8068 506.278,33.8495 507.04,35.2539 507.802,36.9501 508.565,36.9683 509.327,36.9683 510.089,39.5217 510.852,41.3091 511.614,45.6134 512.377,45.4675 513.139,48.9329 513.901,50.7567 514.663,56.1736 515.426,61.1892 516.188,64.2533 516.951,68.3206 517.713,73.4639 518.476,79.8291 519.238,85.4102 519.999,92.7056 520.762,96.8823 521.525,103.831 522.287,107.99 523.05,113.188 523.812,118.258 524.575,123.821 525.337,126.283 526.099,129.001 526.861,129.128 527.624,129.42 528.386,135.84 529.149,136.679 529.911,140.035 530.674,138.175 531.436,138.284 532.198,141.148 532.96,139.652 533.723,142.825 534.485,140.783 535.248,141.02 536.011,140.965 536.773,142.114 537.535,140.965 538.297,137.5 539.059,137.427 539.822,133.852 540.584,134.308 541.347,134.946 542.109,133.05 542.872,132.138 543.633,131.518 544.396,132.065 545.158,129.092 545.921,127.286 546.684,127.067 547.446,125.626 548.209,124.368 548.971,121.486 549.733,119.389 550.495,119.389 551.258,118.222 552.02,117.784 552.782,117.984 553.545,117.091 554.307,116.379 555.07,118.586 555.831,118.039 556.594,119.061 557.356,120.21 558.119,118.349 558.882,118.842 559.644,119.316 560.407,117.875 561.169,115.303 561.931,116.161 562.693,112.513 563.456,111.82 564.218,108.117 564.98,106.22 565.743,104.561 566.505,101.223 567.267,97.3747 568.029,95.0402 568.792,92.8333 569.554,83.6775 570.317,81.3247 571.08,74.923 571.842,71.3117 572.605,68.8495 573.366,62.32 574.129,59.7301 574.891,55.0063 575.654,57.4503 576.416,53.5655 577.178,53.6931 577.941,50.8844 578.703,49.7536 579.465,51.851 580.227,50.2278 580.99,54.0579 581.508,53.8473"/>
<polygon fill="#ffffff" points="211.289,254.329 453.181,254.329 211.289,238.658"/>
<polygon fill="#ffffff" points="453.181,254.329 453.181,238.658 211.289,238.658"/>
<polyline fill="none" stroke="#000000" stroke-width="0.5" stroke-dasharray="16,0" points="211.289,254.329 453.181,254.329"/>
<polyline fill="none" stroke="#000000" stroke-width="0.5" stroke-dasharray="16,0" points="211.289,238.658 453.181,238.658"/>
<polyline fill="none" stroke="#000000" stroke-width="0.5" stroke-dasharray="16,0" points="211.289,238.658 453.181,238.658"/>
<polyline fill="none" stroke="#000000" stroke-width="0.5" stroke-dasharray="16,0" points="211.289,254.329 453.181,254.329"/>
<polyline fill="none" stroke="#000000" stroke-width="0.5" stroke-dasharray="16,0" points="211.289,254.329 211.289,238.658"/>
<polyline fill="none" stroke="#000000" stroke-width="0.5" stroke-dasharray="16,0" points="453.181,254.329 453.181,238.658"/>
<polyline fill="none" stroke="#000000" stroke-width="0.5" stroke-dasharray="16,0" points="453.181,254.329 453.181,238.658"/>
<polyline fill="none" stroke="#000000" stroke-width="0.5" stroke-dasharray="16,0" points="211.289,254.329 211.289,238.658 211.289,238.658"/>
<polyline fill="none" stroke="#000000" stroke-width="0.5" stroke-dasharray="16,0" points="453.181,238.658 453.181,238.658"/>
<polyline fill="none" stroke="#000000" stroke-width="0.5" stroke-dasharray="16,0" points="453.181,254.329 453.181,254.329"/>
<polyline fill="none" stroke="#000000" stroke-width="0.5" stroke-dasharray="16,0" points="211.289,254.329 211.289,254.329"/>
<text fill="#000000" x="236.641" y="246.494" font-size="10" text-anchor="start" baseline-shift="-5" font-family="Helvetica">Distorsión original</text>
<text fill="#000000" x="357.588" y="246.494" font-size="10" text-anchor="start" baseline-shift="-5" font-family="Helvetica">Distorsión de la red</text>
<polyline fill="none" stroke="#ff0000" stroke-width="2" points="213.957,246.494 233.973,246.494"/>
<polyline fill="none" stroke="#00b200" stroke-width="2" points="334.904,246.494 354.919,246.494"/>
</g>
</svg>
