<?xml version="1.0" encoding="UTF-8" standalone="no"?>
<svg xmlns="http://www.w3.org/2000/svg"
     xmlns:xlink="http://www.w3.org/1999/xlink"
     width="643px" height="258px" viewBox="0 0 643 258">
<title>glps_renderer figure</title>
<desc>
Creator: GL2PS 1.3.8, (C) 1999-2012 C. Geuzaine
For: Octave
CreationDate: Thu Feb  4 08:49:42 2016
</desc>
<defs>
</defs>
<g shape-rendering="crispEdges">
<polygon fill="#ffffff" points="83.5294,202.296 581.478,202.296 83.5294,11.2422"/>
<polygon fill="#ffffff" points="581.478,202.296 581.478,11.2422 83.5294,11.2422"/>
<polygon fill="#ffffff" points="211.389,254.322 453.619,254.322 211.389,238.645"/>
<polygon fill="#ffffff" points="453.619,254.322 453.619,238.645 211.389,238.645"/>
<polyline fill="none" stroke="#000000" stroke-width="0.5" stroke-dasharray="16,0" points="83.5294,202.296 581.478,202.296"/>
<polyline fill="none" stroke="#000000" stroke-width="0.5" stroke-dasharray="16,0" points="83.5294,11.2422 581.478,11.2422"/>
<polyline fill="none" stroke="#000000" stroke-width="0.5" stroke-dasharray="16,0" points="83.5294,202.296 83.5294,11.2422"/>
<polyline fill="none" stroke="#000000" stroke-width="0.5" stroke-dasharray="16,0" points="581.478,202.296 581.478,11.2422"/>
<polyline fill="none" stroke="#000000" stroke-width="0.5" stroke-dasharray="16,0" points="132.488,202.296 132.488,197.316"/>
<polyline fill="none" stroke="#000000" stroke-width="0.5" stroke-dasharray="16,0" points="132.488,11.2422 132.488,16.2231"/>
<polyline fill="none" stroke="#000000" stroke-width="0.5" stroke-dasharray="16,0" points="205.451,202.296 205.451,197.316"/>
<polyline fill="none" stroke="#000000" stroke-width="0.5" stroke-dasharray="16,0" points="205.451,11.2422 205.451,16.2231"/>
<polyline fill="none" stroke="#000000" stroke-width="0.5" stroke-dasharray="16,0" points="278.413,202.296 278.413,197.316"/>
<polyline fill="none" stroke="#000000" stroke-width="0.5" stroke-dasharray="16,0" points="278.413,11.2422 278.413,16.2231"/>
<polyline fill="none" stroke="#000000" stroke-width="0.5" stroke-dasharray="16,0" points="351.376,202.296 351.376,197.316"/>
<polyline fill="none" stroke="#000000" stroke-width="0.5" stroke-dasharray="16,0" points="351.376,11.2422 351.376,16.2231"/>
<polyline fill="none" stroke="#000000" stroke-width="0.5" stroke-dasharray="16,0" points="424.338,202.296 424.338,197.316"/>
<polyline fill="none" stroke="#000000" stroke-width="0.5" stroke-dasharray="16,0" points="424.338,11.2422 424.338,16.2231"/>
<polyline fill="none" stroke="#000000" stroke-width="0.5" stroke-dasharray="16,0" points="497.301,202.296 497.301,197.316"/>
<polyline fill="none" stroke="#000000" stroke-width="0.5" stroke-dasharray="16,0" points="497.301,11.2422 497.301,16.2231"/>
<polyline fill="none" stroke="#000000" stroke-width="0.5" stroke-dasharray="16,0" points="570.263,202.296 570.263,197.316"/>
<polyline fill="none" stroke="#000000" stroke-width="0.5" stroke-dasharray="16,0" points="570.263,11.2422 570.263,16.2231"/>
<text fill="#000000" x="132.488" y="207.298" font-size="10" text-anchor="middle" baseline-shift="-10" font-family="Helvetica">1.432</text>
<text fill="#000000" x="205.45" y="207.298" font-size="10" text-anchor="middle" baseline-shift="-10" font-family="Helvetica">1.434</text>
<text fill="#000000" x="278.412" y="207.298" font-size="10" text-anchor="middle" baseline-shift="-10" font-family="Helvetica">1.436</text>
<text fill="#000000" x="351.373" y="207.298" font-size="10" text-anchor="middle" baseline-shift="-10" font-family="Helvetica">1.438</text>
<text fill="#000000" x="424.34" y="207.298" font-size="10" text-anchor="middle" baseline-shift="-10" font-family="Helvetica">1.44</text>
<text fill="#000000" x="497.301" y="207.298" font-size="10" text-anchor="middle" baseline-shift="-10" font-family="Helvetica">1.442</text>
<text fill="#000000" x="570.263" y="207.298" font-size="10" text-anchor="middle" baseline-shift="-10" font-family="Helvetica">1.444</text>
<polyline fill="none" stroke="#000000" stroke-width="0.5" stroke-dasharray="16,0" points="83.5294,200.928 88.5087,200.928"/>
<polyline fill="none" stroke="#000000" stroke-width="0.5" stroke-dasharray="16,0" points="581.478,200.928 576.498,200.928"/>
<polyline fill="none" stroke="#000000" stroke-width="0.5" stroke-dasharray="16,0" points="83.5294,164.481 88.5087,164.481"/>
<polyline fill="none" stroke="#000000" stroke-width="0.5" stroke-dasharray="16,0" points="581.478,164.481 576.498,164.481"/>
<polyline fill="none" stroke="#000000" stroke-width="0.5" stroke-dasharray="16,0" points="83.5294,128.034 88.5087,128.034"/>
<polyline fill="none" stroke="#000000" stroke-width="0.5" stroke-dasharray="16,0" points="581.478,128.034 576.498,128.034"/>
<polyline fill="none" stroke="#000000" stroke-width="0.5" stroke-dasharray="16,0" points="83.5294,91.5876 88.5087,91.5876"/>
<polyline fill="none" stroke="#000000" stroke-width="0.5" stroke-dasharray="16,0" points="581.478,91.5876 576.498,91.5876"/>
<polyline fill="none" stroke="#000000" stroke-width="0.5" stroke-dasharray="16,0" points="83.5294,55.1409 88.5087,55.1409"/>
<polyline fill="none" stroke="#000000" stroke-width="0.5" stroke-dasharray="16,0" points="581.478,55.1409 576.498,55.1409"/>
<polyline fill="none" stroke="#000000" stroke-width="0.5" stroke-dasharray="16,0" points="83.5294,18.6941 88.5087,18.6941"/>
<polyline fill="none" stroke="#000000" stroke-width="0.5" stroke-dasharray="16,0" points="581.478,18.6941 576.498,18.6941"/>
<text fill="#000000" x="78.5267" y="200.928" font-size="10" text-anchor="end" baseline-shift="-5" font-family="Helvetica">-0.2</text>
<text fill="#000000" x="78.5267" y="164.481" font-size="10" text-anchor="end" baseline-shift="-5" font-family="Helvetica">-0.1</text>
<text fill="#000000" x="78.5267" y="128.034" font-size="10" text-anchor="end" baseline-shift="-5" font-family="Helvetica">0</text>
<text fill="#000000" x="78.5267" y="91.5876" font-size="10" text-anchor="end" baseline-shift="-5" font-family="Helvetica">0.1</text>
<text fill="#000000" x="78.5267" y="55.1409" font-size="10" text-anchor="end" baseline-shift="-5" font-family="Helvetica">0.2</text>
<text fill="#000000" x="78.5267" y="18.6941" font-size="10" text-anchor="end" baseline-shift="-5" font-family="Helvetica">0.3</text>
<text fill="#000000" x="332.503" y="220.298" font-size="10" text-anchor="middle" baseline-shift="-10" font-family="Helvetica">Tiempo (s)</text>
<text fill="#000000" x="55.5253" y="106.769" font-size="10" transform="rotate(-90, 55.5253, 106.769)" text-anchor="middle" baseline-shift="0" font-family="Helvetica">Amplitud WAV</text>
<polyline fill="none" stroke="#ff0000" stroke-width="2" points="83.0285,181.18 83.5146,181.134 84.3388,181.001 85.1679,180.578 85.992,180.244 86.826,180.789 87.6501,179.899 88.4792,179.588 89.3034,179.599 90.1324,178.865 90.9615,177.853 91.7857,177.241 92.6147,174.46 93.4389,172.659 94.2679,168.732 95.097,162.848 95.9212,154.317 96.7502,143.484 97.5744,132.795 98.4034,121.639 99.2325,109.348 100.057,98.2368 100.886,87.6702 101.715,76.9035 102.539,68.4169 103.368,62.1104 104.192,57.9727 105.021,54.8361 105.85,52.3669 106.679,50.5872 107.504,49.3193 108.328,48.841 109.162,48.029 109.986,47.7287 110.815,47.3506 111.639,46.4941 112.463,46.9946 113.297,47.5396 114.121,47.2282 114.95,48.029 115.775,47.9623 116.604,48.93 117.433,49.386 118.257,50.1423 119.086,51.1768 119.91,53.3012 120.744,55.8817 121.568,57.5278 122.392,59.8969 123.221,64.2459 124.046,69.062 124.88,74.1562 125.704,79.3171 126.528,85.2677 127.357,90.2729 128.186,94.8777 129.015,100.339 129.839,104.788 130.668,108.848 131.492,112.807 132.321,116.723 133.151,120.137 133.975,123.107 134.804,126.166 135.628,128.357 136.457,130.081 137.286,131.738 138.11,132.472 138.939,133.362 139.768,134.063 140.592,133.674 141.422,132.661 142.246,132.528 143.075,131.349 143.904,130.415 144.728,129.358 145.557,128.157 146.381,126.544 147.215,124.864 148.039,123.463 148.868,121.016 149.693,119.704 150.517,118.291 151.351,116.945 152.175,115.855 153.004,114.62 153.828,114.387 154.652,114.009 155.486,114.531 156.31,114.798 157.139,116.044 157.964,118.38 158.793,118.914 159.622,121.828 160.446,123.997 161.275,126.477 162.099,129.658 162.928,133.017 163.757,136.933 164.581,139.947 165.41,143.918 166.239,148.066 167.069,151.57 167.893,154.907 168.717,158.755 169.546,160.635 170.375,163.338 171.204,164.739 172.028,166.875 172.852,167.798 173.686,168.955 174.51,169.455 175.34,169.066 176.164,168.71 176.993,167.297 177.822,166.308 178.646,164.039 179.475,161.669 180.299,159.356 181.128,155.53 181.957,151.87 182.781,149.167 183.611,145.163 184.435,141.904 185.269,138.657 186.093,135.142 186.917,132.728 187.746,130.67 188.57,128.401 189.404,126.633 190.228,125.476 191.053,124.831 191.882,125.098 192.711,125.821 193.54,126.01 194.364,128.001 195.193,129.792 196.017,131.649 196.846,134.541 197.675,136.232 198.499,139.001 199.328,141.393 200.153,143.217 200.982,145.653 201.811,147.955 202.635,148.478 203.464,149.535 204.293,149.001 205.117,148.456 205.946,148.222 206.77,146.676 207.599,144.54 208.428,142.283 209.258,140.203 210.082,136.321 210.906,132.817 211.74,129.97 212.564,126.344 213.393,123.196 214.217,120.36 215.041,118.291 215.875,115.355 216.7,114.342 217.529,114.075 218.353,112.997 219.182,113.675 220.011,114.098 220.835,116.222 221.664,118.803 222.488,121.706 223.317,124.92 224.146,127.979 224.971,132.617 225.8,137.544 226.624,141.504 227.458,146.476 228.282,151.292 229.106,155.663 229.935,160.068 230.764,163.872 231.593,167.509 232.417,171.09 233.242,173.671 234.071,175.495 234.9,176.941 235.729,177.953 236.553,179.51 237.382,180.111 238.206,180.989 239.035,181.234 239.864,181.924 240.688,182.435 241.517,183.014 242.347,183.659 243.171,183.537 244,183.803 244.824,183.281 245.653,183.559 246.482,184.126 247.306,184.56 248.135,184.248 248.959,183.292 249.793,183.192 250.618,182.391 251.442,182.191 252.271,181.523 253.095,180.745 253.929,179.521 254.753,177.731 255.582,175.539 256.406,171.68 257.235,166.23 258.064,157.877 258.889,148.4 259.718,137.199 260.542,126.766 261.371,116.256 262.2,105.022 263.024,93.4763 263.853,82.6984 264.677,74.5455 265.506,67.4715 266.335,62.5775 267.16,58.8625 267.989,55.5368 268.818,53.9574 269.642,52.378 270.471,51.4103 271.295,50.3759 272.124,50.198 272.953,50.0756 273.782,49.5195 274.606,49.8643 275.431,49.9978 276.265,49.5195 277.089,49.4639 277.918,50.3203 278.742,51.3102 279.566,51.9442 280.4,52.4336 281.224,53.7906 282.053,54.7805 282.877,56.3266 283.706,58.5288 284.536,60.5087 285.36,63.5785 286.189,67.4047 287.013,72.3654 287.842,77.6598 288.671,82.9431 289.495,88.7714 290.324,93.9879 291.148,99.4492 291.982,103.943 292.807,108.358 293.631,112.785 294.46,116.322 295.289,119.392 296.118,122.595 296.942,125.454 297.766,127.612 298.595,129.425 299.424,130.715 300.253,131.938 301.078,132.962 301.907,132.528 302.731,132.851 303.56,132.161 304.389,131.838 305.213,131.761 306.042,131.115 306.871,129.959 307.695,128.413 308.524,127.289 309.349,125.932 310.178,124.486 311.007,122.551 311.831,120.671 312.66,119.203 313.484,117.857 314.318,116.411 315.142,114.765 315.971,113.986 316.795,112.997 317.62,113.731 318.454,114.131 319.278,114.843 320.107,116.801 320.931,118.246 321.76,119.726 322.589,122.24 323.413,125.454 324.242,129.147 325.066,132.016 325.896,135.62 326.725,139.513 327.549,144.463 328.378,148.055 329.202,151.87 330.031,155.908 330.86,159.411 331.684,161.603 332.513,163.66 333.342,166.241 334.171,167.119 334.996,168.21 335.82,168.788 336.649,169.889 337.478,169.133 338.307,168.732 339.131,167.542 339.955,166.397 340.789,164.027 341.613,161.669 342.442,158.244 343.267,154.44 344.096,151.414 344.925,147.722 345.749,144.196 346.578,140.18 347.402,137.622 348.231,133.751 349.06,130.537 349.884,129.414 350.713,127.512 351.538,125.676 352.372,124.486 353.196,124.431 354.02,124.52 354.849,124.864 355.673,126.566 356.507,127.412 357.331,129.369 358.155,131.727 358.984,133.485 359.814,135.653 360.643,138.423 361.467,141.66 362.296,144.585 363.12,146.509 363.949,147.443 364.778,148.545 365.602,148.622 366.431,149.579 367.255,149.201 368.085,148.011 368.914,146.787 369.738,144.885 370.567,142.227 371.396,139.046 372.22,136.165 373.049,133.195 373.873,129.736 374.702,126.555 375.531,123.385 376.356,120.894 377.185,118.625 378.009,116.567 378.843,114.921 379.667,114.042 380.496,113.597 381.32,114.042 382.144,114.91 382.978,116.433 383.802,119.147 384.631,121.661 385.456,124.864 386.28,128.746 387.114,133.162 387.938,138.234 388.767,142.928 389.591,147.41 390.42,151.792 391.249,156.864 392.073,160.958 392.902,164.673 393.727,169.11 394.556,170.745 395.385,172.803 396.209,175.495 397.038,176.941 397.867,177.864 398.696,179.132 399.52,179.988 400.344,180.311 401.173,181.034 402.003,181.412 402.832,182.613 403.656,182.68 404.48,182.936 405.314,183.158 406.138,183.759 406.967,183.57 407.791,183.748 408.62,183.537 409.449,183.058 410.274,183.336 411.103,183.559 411.927,182.536 412.756,183.047 413.585,182.491 414.409,181.612 415.238,180.634 416.062,179.188 416.896,177.831 417.72,174.95 418.545,171.858 419.374,166.374 420.198,159.378 421.032,149.49 421.856,139.001 422.685,128.123 423.509,116.1 424.338,105.077 425.167,93.8989 425.991,83.5882 426.82,73.5222 427.645,67.1044 428.474,61.9769 429.303,58.2953 430.127,56.3488 430.956,53.7461 431.78,52.3446 432.609,51.0433 433.438,50.654 434.262,49.6752 435.091,49.1747 435.921,49.4861 436.745,49.4194 437.574,49.0301 438.398,50.0979 439.227,50.3092 440.056,50.3092 440.885,51.6328 441.709,51.9887 442.533,52.1667 443.367,52.8229 444.192,53.7127 445.021,55.5813 445.845,56.4823 446.669,59.63 447.503,62.8333 448.327,66.4816 449.156,70.9974 449.98,76.4808 450.809,81.9754 451.638,88.282 452.463,94.2771 453.292,98.7039 454.116,103.62 454.945,107.869 455.774,111.495 456.598,114.454 457.427,118.002 458.251,120.894 459.085,122.718 459.909,125.576 460.734,127.723 461.563,128.713 462.392,130.27 463.221,130.782 464.045,131.304 464.869,131.371 465.698,131.916 466.527,131.827 467.356,130.693 468.18,130.381 469.01,128.246 469.839,127.667 470.663,125.654 471.492,124.275 472.316,122.084 473.145,120.582 473.974,119.281 474.798,117.579 475.627,116.144 476.451,114.209 477.281,114.198 478.11,113.308 478.934,112.841 479.763,113.163 480.587,113.275 481.421,113.986 482.245,115.188 483.069,117.123 483.898,119.737 484.722,121.828 485.556,125.232 486.381,128.49 487.21,132.016 488.034,136.009 488.863,139.958 489.692,143.918 490.516,148.311 491.345,150.369 492.169,153.839 492.998,157.209 493.827,159.389 494.652,161.725 495.481,164.116 496.305,166.385 497.134,166.719 497.963,167.364 498.787,167.831 499.616,168.087 500.445,167.865 501.269,166.775 502.098,165.24 502.923,163.26 503.752,160.524 504.581,157.743 505.41,153.906 506.234,150.358 507.058,147.377 507.892,143.662 508.716,140.236 509.545,136.287 510.369,132.739 511.194,129.369 512.028,127.678 512.852,125.899 513.681,124.319 514.505,123.919 515.334,124.876 516.163,125.443 516.987,125.877 517.816,127.044 518.641,128.791 519.474,131.349 520.299,132.695 521.123,135.12 521.952,138.045 522.776,139.446 523.61,142.294 524.434,143.817 525.258,145.33 526.087,146.52 526.916,147.599 527.745,147.766 528.57,147.054 529.399,146.431 530.223,145.608 531.052,143.184 531.881,142.26 532.705,139.591 533.534,136.121 534.358,133.04 535.187,129.736 536.016,126.388 536.841,123.419 537.67,120.916 538.499,117.868 539.323,115.866 540.152,114.576 540.976,113.942 541.805,113.53 542.634,113.864 543.458,115.421 544.287,115.966 545.112,118.213 545.946,120.037 546.77,122.417 547.599,126.422 548.423,129.881 549.247,133.929 550.081,137.633 550.905,142.372 551.734,146.353 552.558,151.236 553.388,155.685 554.217,160.335 555.041,163.527 555.87,166.085 556.694,169.266 557.523,171.924 558.352,174.049 559.176,175.918 560.005,177.041 560.83,178.398 561.659,179.143 562.488,179.61 563.312,180.444 564.141,181.39 564.97,182.079 565.799,182.246 566.623,183.203 567.447,183.359 568.276,183.281 569.105,183.503 569.935,183.169 570.759,183.27 571.583,183.158 572.417,183.236 573.241,182.802 574.07,182.224 574.894,181.635 575.723,181.212 576.552,180.589 577.376,180.033 578.206,178.732 579.03,176.785 579.859,174.605 580.688,169.967 581.512,164.183 581.98,158.937"/>
<polyline fill="none" stroke="#00b200" stroke-width="2" points="83.0285,174.797 83.5146,175.361 84.3388,175.806 85.1679,175.384 85.992,174.783 86.826,175.717 87.6501,175.651 88.4792,175.817 89.3034,175.528 90.1324,175.295 90.9615,174.994 91.7857,173.226 92.6147,171.724 93.4389,170.234 94.2679,166.819 95.097,163.571 95.9212,158.711 96.7502,153.205 97.5744,146.42 98.4034,137.611 99.2325,129.369 100.057,118.747 100.886,109.526 101.715,99.8607 102.539,88.9938 103.368,80.7742 104.192,72.1541 105.021,64.3349 105.85,58.2841 106.679,52.7006 107.504,48.0068 108.328,43.5688 109.162,41.6335 109.986,38.9752 110.815,36.9842 111.639,35.5939 112.463,34.248 113.297,33.792 114.121,33.8699 114.95,32.8355 115.775,33.336 116.604,34.4928 117.433,34.5372 118.257,35.3603 119.086,38.3189 119.91,39.6759 120.744,42.0673 121.568,45.2817 122.392,47.6175 123.221,51.6105 124.046,55.7927 124.88,59.6411 125.704,64.5907 126.528,69.9741 127.357,74.9793 128.186,79.4839 129.015,84.3223 129.839,89.2163 130.668,94.6442 131.492,99.705 132.321,103.075 133.151,107.769 133.975,112.385 134.804,115.566 135.628,119.192 136.457,122.929 137.286,124.509 138.11,127.1 138.939,128.913 139.768,131.338 140.592,131.605 141.422,132.339 142.246,132.739 143.075,132.239 143.904,131.093 144.728,131.538 145.557,129.191 146.381,128.557 147.215,127.1 148.039,125.632 148.868,124.831 149.693,122.451 150.517,120.994 151.351,119.715 152.175,117.346 153.004,116.878 153.828,114.965 154.652,113.419 155.486,113.375 156.31,112.618 157.139,111.317 157.964,113.33 158.793,112.541 159.622,112.718 160.446,114.854 161.275,114.487 162.099,116.178 162.928,120.171 163.757,121.594 164.581,125.343 165.41,128.413 166.239,131.583 167.069,134.786 167.893,137.756 168.717,141.993 169.546,143.184 170.375,146.031 171.204,150.046 172.028,151.581 172.852,155.174 173.686,158.744 174.51,158.944 175.34,161.047 176.164,162.348 176.993,162.314 177.822,162.882 178.646,162.392 179.475,160.98 180.299,160.112 181.128,158.288 181.957,156.119 182.781,154.073 183.611,151.603 184.435,147.655 185.269,143.795 186.093,140.625 186.917,136.599 187.746,133.262 188.57,130.404 189.404,127.512 190.228,124.23 191.053,122.662 191.882,120.115 192.711,119.581 193.54,119.748 194.364,117.868 195.193,118.625 196.017,120.16 196.846,121.639 197.675,122.951 198.499,125.054 199.328,126.677 200.153,128.913 200.982,131.761 201.811,134.085 202.635,135.62 203.464,139.213 204.293,140.614 205.117,140.303 205.946,141.493 206.77,142.283 207.599,141.916 208.428,140.091 209.258,139.469 210.082,138.234 210.906,134.841 211.74,132.283 212.564,129.536 213.393,126.411 214.217,123.207 215.041,118.969 215.875,116.878 216.7,113.931 217.529,111.462 218.353,108.87 219.182,106.879 220.011,106.089 220.835,104.988 221.664,106.901 222.488,107.958 223.317,109.037 224.146,112.429 224.971,114.153 225.8,117.435 226.624,122.618 227.458,125.643 228.282,130.092 229.106,133.996 229.935,137.945 230.764,141.916 231.593,146.665 232.417,150.113 233.242,153.005 234.071,156.642 234.9,158.533 235.729,161.758 236.553,163.961 237.382,164.728 238.206,167.297 239.035,168.732 239.864,169.6 240.688,172.247 241.517,172.503 242.347,173.026 243.171,173.915 244,174.205 244.824,174.761 245.653,174.038 246.482,175.239 247.306,175.017 248.135,175.005 248.959,176.307 249.793,176.529 250.618,176.841 251.442,177.108 252.271,176.451 253.095,176.029 253.929,174.65 254.753,172.714 255.582,170.49 256.406,168.532 257.235,164.039 258.064,159.378 258.889,154.784 259.718,147.11 260.542,139.357 261.371,130.893 262.2,121.272 263.024,112.363 263.853,102.819 264.677,93.7988 265.506,85.4235 266.335,77.6265 267.16,70.3634 267.989,62.8222 268.818,56.9383 269.642,52.289 270.471,47.117 271.295,43.9804 272.124,41.0218 272.953,38.4635 273.782,37.5181 274.606,36.3391 275.431,35.3826 276.265,35.1267 277.089,34.4816 277.918,34.8264 278.742,35.238 279.566,35.5383 280.4,36.2613 281.224,37.6182 282.053,39.2533 282.877,40.499 283.706,43.7357 284.536,46.3495 285.36,49.4416 286.189,53.8128 287.013,57.183 287.842,62.8556 288.671,66.5705 289.495,71.6202 290.324,77.7043 291.148,81.0522 291.982,87.6035 292.807,92.3974 293.631,96.1457 294.46,102.319 295.289,105.945 296.118,110.438 296.942,114.787 297.766,117.735 298.595,121.472 299.424,123.363 300.253,125.999 301.078,128.446 301.907,128.924 302.731,130.548 303.56,132.061 304.389,131.249 305.213,132.083 306.042,130.937 306.871,131.749 307.695,130.114 308.524,128.324 309.349,129.047 310.178,126.266 311.007,124.853 311.831,124.92 312.66,121.583 313.484,120.96 314.318,119.514 315.142,117.724 315.971,115.288 316.795,114.098 317.62,112.752 318.454,111.295 319.278,111.996 320.107,111.539 320.931,112.118 321.76,113.108 322.589,113.753 323.413,115.488 324.242,116.433 325.066,119.003 325.896,121.172 326.725,124.842 327.549,128.835 328.378,131.66 329.202,135.809 330.031,139.068 330.86,141.37 331.684,145.397 332.513,147.9 333.342,150.402 334.171,153.75 334.996,155.808 335.82,158.566 336.649,160.568 337.478,161.792 338.307,162.882 339.131,163.104 339.955,162.937 340.789,162.67 341.613,161.703 342.442,160.112 343.267,158.366 344.096,156.364 344.925,152.971 345.749,150.613 346.578,147.177 347.402,143.862 348.231,139.902 349.06,136.221 349.884,132.917 350.713,128.535 351.538,126.366 352.372,124.575 353.196,122.807 354.02,120.571 354.849,119.114 355.673,118.791 356.507,119.414 357.331,118.747 358.155,120.738 358.984,121.25 359.814,122.128 360.643,124.742 361.467,126.255 362.296,129.58 363.12,132.194 363.949,134.263 364.778,136.477 365.602,138.345 366.431,140.014 367.255,140.636 368.085,140.992 368.914,142.383 369.738,141.337 370.567,141.126 371.396,139.569 372.22,138 373.049,136.098 373.873,132.584 374.702,129.758 375.531,125.977 376.356,122.684 377.185,119.581 378.009,117.101 378.843,115.343 379.667,111.818 380.496,109.704 381.32,108.681 382.144,107.88 382.978,108.169 383.802,107.702 384.631,108.881 385.456,110.249 386.28,112.618 387.114,115.444 387.938,119.448 388.767,123.051 389.591,126.566 390.42,130.459 391.249,136.109 392.073,139.613 392.902,142.794 393.727,146.754 394.556,149.924 395.385,153.06 396.209,156.286 397.038,159.322 397.867,161.035 398.696,163.316 399.52,165.529 400.344,167.909 401.173,168.988 402.003,170.2 402.832,171.346 403.656,172.303 404.48,172.458 405.314,173.493 406.138,173.771 406.967,174.105 407.791,173.66 408.62,174.138 409.449,174.95 410.274,174.016 411.103,174.282 411.927,175.384 412.756,175.662 413.585,175.072 414.409,175.695 415.238,175.506 416.062,174.527 416.896,172.603 417.72,171.224 418.545,169.033 419.374,164.839 420.198,159.589 421.032,155.73 421.856,148.545 422.685,141.359 423.509,132.139 424.338,122.74 425.167,114.176 425.991,103.387 426.82,94.2104 427.645,85.9685 428.474,77.0258 429.303,70.1631 430.127,62.5219 430.956,56.916 431.78,50.8764 432.609,46.6943 433.438,42.9905 434.262,40.1208 435.091,38.23 435.921,36.5171 436.745,36.3614 437.574,35.5828 438.398,35.5272 439.227,35.6495 440.056,35.8942 440.885,36.0944 441.709,36.0277 442.533,37.2289 443.367,38.4747 444.192,39.4868 445.021,41.5445 445.845,43.8469 446.669,45.9825 447.503,49.4972 448.327,53.2456 449.156,56.6491 449.98,61.3206 450.809,66.0923 451.638,70.2521 452.463,76.5809 453.292,82.2201 454.116,87.9149 454.945,93.2427 455.774,97.5583 456.598,102.341 457.427,106.212 458.251,111.628 459.085,114.543 459.909,116.934 460.734,121.928 461.563,122.785 462.392,124.887 463.221,128.401 464.045,127.2 464.869,129.503 465.698,130.159 466.527,130.493 467.356,131.382 468.18,130.582 469.01,130.793 469.839,129.491 470.663,128.724 471.492,128.435 472.316,125.721 473.145,124.609 473.974,123.163 474.798,120.849 475.627,119.159 476.451,117.668 477.281,115.989 478.11,114.832 478.934,113.264 479.763,112.641 480.587,111.484 481.421,110.972 482.245,111.651 483.069,110.594 483.898,112.007 484.722,113.675 485.556,114.609 486.381,117.846 487.21,119.336 488.034,121.75 488.863,125.254 489.692,127.701 490.516,131.827 491.345,134.519 492.169,137.044 492.998,140.781 493.827,144.129 494.652,147.644 495.481,150.424 496.305,152.304 497.134,155.218 497.963,157.031 498.787,159.033 499.616,160.791 500.445,161.38 501.269,162.57 502.098,162.759 502.923,161.992 503.752,161.925 504.581,160.468 505.41,158.255 506.234,156.286 507.058,152.971 507.892,149.846 508.716,146.376 509.545,142.972 510.369,138.857 511.194,135.209 512.028,130.771 512.852,127.767 513.681,125.031 514.505,123.163 515.334,121.628 516.163,119.459 516.987,119.826 517.816,119.336 518.641,119.615 519.474,120.037 520.299,121.25 521.123,122.262 521.952,124.275 522.776,127.289 523.61,129.058 524.434,130.937 525.258,133.618 526.087,134.486 526.916,137.455 527.745,138.412 528.57,139.135 529.399,140.837 530.223,140.703 531.052,141.215 531.881,140.258 532.705,139.702 533.534,138.023 534.358,135.498 535.187,133.74 536.016,129.825 536.841,126.733 537.67,124.053 538.499,120.638 539.323,118.157 540.152,115.599 540.976,112.663 541.805,111.05 542.634,109.738 543.458,108.67 544.287,108.514 545.112,108.014 545.946,107.813 546.77,109.371 547.599,112.452 548.423,114.443 549.247,117.991 550.081,121.283 550.905,123.663 551.734,127.745 552.558,132.439 553.388,135.932 554.217,139.302 555.041,143.039 555.87,146.798 556.694,150.035 557.523,153.216 558.352,155.941 559.176,158.655 560.005,160.835 560.83,162.27 561.659,165.217 562.488,167.231 563.312,167.865 564.141,169.833 564.97,170.801 565.799,171.769 566.623,172.937 567.447,173.448 568.276,174.271 569.105,174.171 569.935,174.716 570.759,174.494 571.583,174.271 572.417,175.128 573.241,175.039 574.07,175.484 574.894,175.495 575.723,174.472 576.552,175.206 577.376,174.327 578.206,173.159 579.03,172.514 579.859,170.178 580.688,166.93 581.512,163.627 581.98,160.803"/>
<polyline fill="none" stroke="#000000" stroke-width="0.5" stroke-dasharray="16,0" points="211.389,254.322 453.619,254.322"/>
<polyline fill="none" stroke="#000000" stroke-width="0.5" stroke-dasharray="16,0" points="211.389,238.645 453.619,238.645"/>
<polyline fill="none" stroke="#000000" stroke-width="0.5" stroke-dasharray="16,0" points="211.389,254.322 211.389,238.645"/>
<polyline fill="none" stroke="#000000" stroke-width="0.5" stroke-dasharray="16,0" points="453.619,254.322 453.619,238.645"/>
<text fill="#000000" x="236.826" y="246.484" font-size="10" text-anchor="start" baseline-shift="-5" font-family="Helvetica">Distorsión original</text>
<text fill="#000000" x="357.941" y="246.484" font-size="10" text-anchor="start" baseline-shift="-5" font-family="Helvetica">Distorsión de la red</text>
<polyline fill="none" stroke="#ff0000" stroke-width="2" points="214.067,246.484 234.149,246.484"/>
<polyline fill="none" stroke="#00b200" stroke-width="2" points="335.182,246.484 355.264,246.484"/>
</g>
</svg>
