<?xml version="1.0" encoding="UTF-8" standalone="no"?>
<svg xmlns="http://www.w3.org/2000/svg"
     xmlns:xlink="http://www.w3.org/1999/xlink"
     width="643px" height="258px" viewBox="0 0 643 258">
<title>glps_renderer figure</title>
<desc>
Creator: GL2PS 1.3.8, (C) 1999-2012 C. Geuzaine
For: Octave
CreationDate: Tue Feb  2 18:19:45 2016
</desc>
<defs>
</defs>
<g shape-rendering="crispEdges">
<polygon fill="#ffffff" points="83.5269,202.296 581.48,202.296 83.5269,11.2422"/>
<polygon fill="#ffffff" points="581.48,202.296 581.48,11.2422 83.5269,11.2422"/>
<polygon fill="#ffffff" points="211.389,254.322 453.619,254.322 211.389,238.645"/>
<polygon fill="#ffffff" points="453.619,254.322 453.619,238.645 211.389,238.645"/>
<polyline fill="none" stroke="#000000" stroke-width="0.5" stroke-dasharray="16,0" points="83.5269,202.296 581.48,202.296"/>
<polyline fill="none" stroke="#000000" stroke-width="0.5" stroke-dasharray="16,0" points="83.5269,11.2422 581.48,11.2422"/>
<polyline fill="none" stroke="#000000" stroke-width="0.5" stroke-dasharray="16,0" points="83.5269,202.296 83.5269,11.2422"/>
<polyline fill="none" stroke="#000000" stroke-width="0.5" stroke-dasharray="16,0" points="581.48,202.296 581.48,11.2422"/>
<polyline fill="none" stroke="#000000" stroke-width="0.5" stroke-dasharray="16,0" points="125.308,202.296 125.308,197.316"/>
<polyline fill="none" stroke="#000000" stroke-width="0.5" stroke-dasharray="16,0" points="125.308,11.2422 125.308,16.2231"/>
<polyline fill="none" stroke="#000000" stroke-width="0.5" stroke-dasharray="16,0" points="280.599,202.296 280.599,197.316"/>
<polyline fill="none" stroke="#000000" stroke-width="0.5" stroke-dasharray="16,0" points="280.599,11.2422 280.599,16.2231"/>
<polyline fill="none" stroke="#000000" stroke-width="0.5" stroke-dasharray="16,0" points="435.891,202.296 435.891,197.316"/>
<polyline fill="none" stroke="#000000" stroke-width="0.5" stroke-dasharray="16,0" points="435.891,11.2422 435.891,16.2231"/>
<text fill="#000000" x="125.308" y="207.298" font-size="10" text-anchor="middle" baseline-shift="-10" font-family="Helvetica">0.645</text>
<text fill="#000000" x="280.599" y="207.298" font-size="10" text-anchor="middle" baseline-shift="-10" font-family="Helvetica">0.65</text>
<text fill="#000000" x="435.89" y="207.298" font-size="10" text-anchor="middle" baseline-shift="-10" font-family="Helvetica">0.655</text>
<polyline fill="none" stroke="#000000" stroke-width="0.5" stroke-dasharray="16,0" points="83.5269,187.09 88.505,187.09"/>
<polyline fill="none" stroke="#000000" stroke-width="0.5" stroke-dasharray="16,0" points="581.48,187.09 576.502,187.09"/>
<polyline fill="none" stroke="#000000" stroke-width="0.5" stroke-dasharray="16,0" points="83.5269,158.424 88.505,158.424"/>
<polyline fill="none" stroke="#000000" stroke-width="0.5" stroke-dasharray="16,0" points="581.48,158.424 576.502,158.424"/>
<polyline fill="none" stroke="#000000" stroke-width="0.5" stroke-dasharray="16,0" points="83.5269,129.758 88.505,129.758"/>
<polyline fill="none" stroke="#000000" stroke-width="0.5" stroke-dasharray="16,0" points="581.48,129.758 576.502,129.758"/>
<polyline fill="none" stroke="#000000" stroke-width="0.5" stroke-dasharray="16,0" points="83.5269,101.093 88.505,101.093"/>
<polyline fill="none" stroke="#000000" stroke-width="0.5" stroke-dasharray="16,0" points="581.48,101.093 576.502,101.093"/>
<polyline fill="none" stroke="#000000" stroke-width="0.5" stroke-dasharray="16,0" points="83.5269,72.4272 88.505,72.4272"/>
<polyline fill="none" stroke="#000000" stroke-width="0.5" stroke-dasharray="16,0" points="581.48,72.4272 576.502,72.4272"/>
<polyline fill="none" stroke="#000000" stroke-width="0.5" stroke-dasharray="16,0" points="83.5269,43.7616 88.505,43.7616"/>
<polyline fill="none" stroke="#000000" stroke-width="0.5" stroke-dasharray="16,0" points="581.48,43.7616 576.502,43.7616"/>
<polyline fill="none" stroke="#000000" stroke-width="0.5" stroke-dasharray="16,0" points="83.5269,15.0959 88.505,15.0959"/>
<polyline fill="none" stroke="#000000" stroke-width="0.5" stroke-dasharray="16,0" points="581.48,15.0959 576.502,15.0959"/>
<text fill="#000000" x="78.5272" y="187.09" font-size="10" text-anchor="end" baseline-shift="-5" font-family="Helvetica">-0.4</text>
<text fill="#000000" x="78.5272" y="158.424" font-size="10" text-anchor="end" baseline-shift="-5" font-family="Helvetica">-0.2</text>
<text fill="#000000" x="78.5272" y="129.758" font-size="10" text-anchor="end" baseline-shift="-5" font-family="Helvetica">0</text>
<text fill="#000000" x="78.5272" y="101.093" font-size="10" text-anchor="end" baseline-shift="-5" font-family="Helvetica">0.2</text>
<text fill="#000000" x="78.5272" y="72.4272" font-size="10" text-anchor="end" baseline-shift="-5" font-family="Helvetica">0.4</text>
<text fill="#000000" x="78.5272" y="43.7616" font-size="10" text-anchor="end" baseline-shift="-5" font-family="Helvetica">0.6</text>
<text fill="#000000" x="78.5272" y="15.096" font-size="10" text-anchor="end" baseline-shift="-5" font-family="Helvetica">0.8</text>
<text fill="#000000" x="332.504" y="220.298" font-size="10" text-anchor="middle" baseline-shift="-10" font-family="Helvetica">Tiempo (s)</text>
<text fill="#000000" x="55.5277" y="106.769" font-size="10" transform="rotate(-90, 55.5277, 106.769)" text-anchor="middle" baseline-shift="0" font-family="Helvetica">Amplitud WAV</text>
<polyline fill="none" stroke="#ff0000" stroke-width="2" points="83.0282,148.244 83.403,148.506 84.1082,148.842 84.8122,149.162 85.5174,149.402 86.2214,149.91 86.9266,150.023 87.6293,150.05 88.3333,150.286 89.0385,150.207 89.7424,150.461 90.4476,150.33 91.1504,150.102 91.8556,149.695 92.5595,149.621 93.2635,149.468 93.9687,149.14 94.6714,148.685 95.3766,148.182 96.0806,147.714 96.7858,146.883 97.4898,145.4 98.195,142.085 98.8977,137.382 99.6017,131.801 100.307,127.134 101.011,123.705 101.716,121.43 102.419,120.818 103.124,121.321 103.828,123.727 104.532,126.963 105.237,131.066 105.94,135.322 106.645,138.751 107.349,141.087 108.054,142.679 108.758,143.095 109.463,142.863 110.166,140.939 110.87,137.168 111.575,131.609 112.279,125.061 112.984,117.043 113.687,108.921 114.392,102.434 115.096,98.283 115.8,95.4924 116.505,93.8215 117.208,92.553 117.913,91.6695 118.617,91.1839 119.323,90.7334 120.027,90.3835 120.729,90.5585 121.434,90.3266 122.138,90.1298 122.844,90.401 123.548,90.506 124.253,90.5672 124.956,90.7465 125.661,91.114 126.365,90.9827 127.069,91.0177 127.774,90.8384 128.477,91.1052 129.182,91.5339 129.886,92.0237 130.591,92.4437 131.295,93.6771 131.998,95.5142 132.703,102.246 133.407,112.971 134.112,125.376 134.816,135.169 135.521,140.842 136.224,144.665 136.929,146.822 137.633,148.331 138.337,148.974 139.042,149.918 139.745,150.229 140.45,150.496 141.154,150.505 141.859,150.277 142.563,150.351 143.266,150.146 143.971,149.975 144.675,149.918 145.38,149.704 146.084,149.656 146.79,149.498 147.492,149.38 148.196,148.982 148.902,148.637 149.605,148.689 150.311,148.164 151.013,147.906 151.719,147.556 152.423,147.535 153.128,146.927 153.832,146.55 154.534,146.629 155.24,146.266 155.944,145.96 156.649,145.794 157.353,145.662 158.058,145.518 158.761,145.418 159.465,145.216 160.17,144.945 160.874,144.849 161.579,144.508 162.282,144.14 162.987,143.493 163.691,142.605 164.396,141.66 165.1,140.759 165.803,139.587 166.508,138.642 167.212,137.645 167.917,137.286 168.621,136.801 169.326,135.79 170.029,134.876 170.733,133.013 171.438,131.294 172.142,129.194 172.847,127.362 173.55,126.255 174.255,125.817 174.959,126.045 175.662,126.666 176.369,127.519 177.071,128.188 177.776,128.717 178.48,128.713 179.186,128.704 179.89,127.952 180.595,127.274 181.298,126.723 182.001,126.049 182.707,125.673 183.409,125.179 184.116,124.986 184.819,125.131 185.524,126.084 186.228,127.322 186.93,129.496 187.637,131.692 188.34,133.993 189.045,135.97 189.749,137.194 190.454,138.034 191.158,138.24 191.861,138.244 192.566,138.393 193.27,138.633 193.975,139.001 194.678,139.224 195.384,139.324 196.087,139.788 196.792,139.963 197.496,140.086 198.199,140.361 198.905,140.405 199.608,140.523 200.313,140.571 201.017,140.431 201.722,140.523 202.426,140.317 203.129,140.475 203.834,139.81 204.538,138.835 205.243,137.299 205.946,135.156 206.653,132.606 207.355,129.557 208.061,126.762 208.765,124.317 209.467,121.96 210.174,121.115 210.876,120.975 211.582,121.216 212.286,122.261 212.991,123.705 213.694,126.115 214.398,129.011 215.103,132.037 215.807,135.156 216.512,138.021 217.215,140.278 217.921,141.949 218.624,143.029 219.328,144.193 220.033,145.076 220.736,145.807 221.442,146.218 222.145,146.651 222.85,147.097 223.554,147.648 224.259,147.941 224.962,147.998 225.666,148.217 226.371,148.344 227.075,148.352 227.78,148.217 228.483,148.261 229.189,148.178 229.892,148.138 230.596,147.994 231.301,147.88 232.004,147.351 232.709,146.677 233.413,146.375 234.118,146.17 234.822,145.278 235.528,143.939 236.23,141.131 236.934,135.926 237.639,130.345 238.343,125.371 239.049,122.607 239.751,121.518 240.458,121.706 241.161,123.386 241.865,125.901 242.57,128.836 243.272,131.495 243.978,134.43 244.682,137.251 245.387,139.504 246.091,140.545 246.794,141.31 247.499,141.63 248.203,140.939 248.908,138.283 249.612,133.931 250.317,127.895 251.02,120.757 251.726,112.652 252.429,104.897 253.133,99.6739 253.838,95.8948 254.541,93.2835 255.246,91.7219 255.95,90.3354 256.655,89.4781 257.359,88.8263 258.062,88.8438 258.767,88.3933 259.471,88.6907 260.176,88.5683 260.88,88.8001 261.585,88.6951 262.288,88.787 262.993,88.8613 263.697,88.8526 264.401,89.1806 265.107,88.822 265.809,89.4037 266.514,89.395 267.218,89.6268 267.924,90.156 268.628,90.8078 269.33,92.1287 270.036,93.336 270.74,97.7581 271.445,107.818 272.149,120.057 272.854,131.049 273.557,138.2 274.261,142.623 274.966,145.19 275.67,146.559 276.375,147.543 277.078,147.911 277.783,148.501 278.487,148.698 279.192,148.663 279.896,148.873 280.599,148.694 281.304,148.646 282.008,148.374 282.713,148.422 283.417,148.466 284.122,148.191 284.825,148.156 285.529,147.526 286.234,147.565 286.938,147.167 287.643,146.638 288.346,146.489 289.051,146.533 289.755,146.012 290.46,145.763 291.164,145.553 291.867,145.159 292.572,145.011 293.276,145.269 293.981,144.91 294.685,144.744 295.391,144.976 296.093,144.88 296.797,144.481 297.503,144.219 298.207,143.821 298.912,143.248 299.614,142.662 300.32,141.826 301.024,141.45 301.728,141.258 302.433,140.724 303.135,140.309 303.841,139.871 304.545,138.94 305.25,137.877 305.954,136.263 306.659,134.399 307.362,132.641 308.066,131.18 308.771,129.776 309.475,128.354 310.18,127.239 310.883,126.609 311.588,126.43 312.292,126.622 312.996,126.933 313.701,127.471 314.404,128.171 315.109,128.547 315.813,128.717 316.518,128.031 317.222,127.222 317.925,126.272 318.63,125.223 319.334,124.418 320.039,123.696 320.743,123.263 321.448,123.941 322.151,124.794 322.856,125.966 323.56,127.169 324.264,128.897 324.97,130.506 325.672,131.972 326.378,133.004 327.081,133.717 327.787,134.605 328.491,135.322 329.193,136.451 329.899,137.361 330.603,137.837 331.308,138.682 332.012,139.084 332.717,139.158 333.42,139.412 334.125,139.399 334.829,139.552 335.533,139.683 336.238,139.915 336.941,140.086 337.646,140.755 338.35,141.179 339.055,141.197 339.759,141.249 340.462,141.166 341.167,140.72 341.871,140.077 342.576,138.73 343.28,136.591 343.985,134.631 344.688,131.884 345.392,128.779 346.097,126.557 346.801,124.536 347.506,123.141 348.209,122.345 348.914,122.773 349.618,123.158 350.323,124.138 351.027,125.446 351.73,126.684 352.435,128.56 353.139,130.38 353.845,132.886 354.548,135.488 355.254,138.157 355.956,139.998 356.66,141.673 357.366,143.126 358.07,143.707 358.775,144.621 359.477,145.435 360.183,146.113 360.887,146.454 361.592,147.04 362.296,147.29 362.999,147.679 363.704,147.81 364.408,147.81 365.113,148.051 365.817,148.173 366.522,148.016 367.225,148.038 367.929,148.033 368.634,147.705 369.337,147.705 370.043,147.298 370.746,146.87 371.451,146.66 372.155,145.435 372.858,145.028 373.564,143.996 374.267,142.185 374.972,138.673 375.676,133.927 376.381,129.649 377.085,125.936 377.79,124.47 378.493,124.575 379.197,126.36 379.902,129.36 380.605,132.658 381.312,135.65 382.014,137.802 382.719,139.145 383.423,140.418 384.126,141.061 384.833,141.892 385.535,141.945 386.241,142.058 386.945,141.555 387.65,139.998 388.352,136.7 389.059,131.031 389.762,123.364 390.466,113.535 391.171,104.66 391.874,98.9872 392.58,95.2562 393.283,92.5793 393.988,91.1708 394.692,90.2348 395.395,89.2375 396.101,88.8526 396.804,88.5726 397.509,88.5333 398.213,88.284 398.918,88.4983 399.621,88.4021 400.325,88.3758 401.03,88.7782 401.734,88.9576 402.439,89.2637 403.142,89.1456 403.848,89.3468 404.551,89.2112 405.256,89.4256 405.96,89.7799 406.663,90.2435 407.369,91.1664 408.072,92.2381 408.777,94.7706 409.481,102.233 410.186,113.999 410.889,126.22 411.593,135.265 412.298,140.449 413.002,144.035 413.708,145.912 414.41,147.04 415.117,147.819 415.819,148.414 416.523,148.405 417.229,148.667 417.931,148.646 418.637,148.471 419.341,148.672 420.046,148.812 420.75,148.541 421.455,148.248 422.158,148.213 422.862,148.23 423.567,148.169 424.271,147.889 424.976,147.36 425.679,147.084 426.385,146.8 427.088,146.625 427.792,146.367 428.497,146.279 429.2,146.253 429.905,145.754 430.609,145.794 431.314,145.553 432.018,145.203 432.723,145.098 433.426,144.901 434.13,144.998 434.835,144.731 435.539,144.543 436.244,144.202 436.947,143.782 437.652,143.554 438.356,143.379 439.06,143.134 439.765,142.465 440.468,142.399 441.173,141.988 441.877,141.564 442.583,140.755 443.286,139.631 443.989,138.301 444.694,136.735 445.398,134.802 446.104,132.956 446.808,131.972 447.513,130.791 448.215,130.257 448.921,130.235 449.625,130.476 450.329,130.874 451.034,130.918 451.737,130.699 452.442,130.231 453.146,129.78 453.851,128.884 454.555,127.886 455.258,127.02 455.963,126.115 456.667,125.678 457.372,125.494 458.076,125.87 458.781,126.163 459.484,126.666 460.189,127.41 460.893,128.158 461.597,128.997 462.302,129.837 463.005,131.338 463.71,132.742 464.414,134.211 465.119,135.187 465.823,136.18 466.526,136.919 467.231,137.312 467.935,137.89 468.64,138.157 469.344,138.183 470.05,138.585 470.752,138.817 471.456,139.062 472.161,139.311 472.865,139.561 473.571,139.924 474.273,140.527 474.979,141.21 475.682,141.52 476.388,142.01 477.092,142.185 477.794,142.159 478.5,141.77 479.204,141.42 479.909,140.457 480.613,139.106 481.318,137.461 482.021,135.34 482.725,133.14 483.43,131.049 484.134,128.875 484.839,126.824 485.542,125.533 486.247,124.864 486.951,125.052 487.656,125.218 488.36,125.756 489.063,126.364 489.768,127.047 490.472,128.127 491.177,129.277 491.881,131.018 492.586,133.555 493.289,136.368 493.993,138.782 494.698,140.702 495.402,142.286 496.107,143.23 496.81,144.267 497.515,145.059 498.219,145.396 498.923,145.899 499.628,146.375 500.331,146.765 501.036,146.94 501.74,147.123 502.446,147.521 503.15,147.517 503.855,147.416 504.557,147.556 505.261,147.613 505.967,147.276 506.671,147.381 507.376,147.172 508.079,146.874 508.784,146.432 509.488,146.039 510.192,145.697 510.897,144.652 511.6,143.965 512.305,142.522 513.009,140.156 513.714,137.496 514.418,134.329 515.123,131.692 515.826,130.052 516.53,129.47 517.235,129.693 517.939,130.699 518.644,132.759 519.347,134.666 520.052,136.809 520.756,138.358 521.46,139.333 522.165,140.829 522.868,141.468 523.573,141.866 524.277,142.251 524.982,141.91 525.686,141.831 526.389,140.335 527.094,137.068 527.798,130.45 528.503,121.168 529.207,110.434 529.913,101.896 530.615,96.3628 531.32,92.8854 532.024,90.974 532.728,89.5656 533.434,88.4021 534.136,87.9122 534.842,87.501 535.546,87.3392 536.251,87.2211 536.955,87.1861 537.657,87.3392 538.363,87.1248 539.067,87.5754 539.772,87.2954 540.476,87.6935 541.181,87.5579 541.884,87.8378 542.588,87.9603 543.293,88.1877 543.996,88.8438 544.702,88.8482 545.405,89.9198 546.11,90.8384 546.814,92.6667 547.519,97.8981 548.223,108.142 548.926,120.074 549.631,130.782 550.335,137.4 551.04,141.564 551.744,143.83 552.449,145.264 553.152,146.135 553.856,146.48 554.561,147.032 555.264,147.255 555.97,147.338 556.673,147.539 557.378,147.653 558.082,147.578 558.788,147.403 559.491,147.381 560.194,147.268 560.899,147.062 561.603,146.874 562.309,146.791 563.013,146.564 563.718,146.288 564.42,146.144 565.124,145.969 565.83,145.579 566.532,145.479 567.239,145.273 567.942,145.26 568.647,145.383 569.351,145.225 570.053,145.12 570.76,144.543 571.463,144.276 572.168,144.066 572.872,143.738 573.577,143.598 574.28,143.475 574.986,142.99 575.689,142.959 576.393,142.749 577.098,142.426 577.801,142.128 578.507,142.08 579.21,141.472 579.915,140.562 580.619,139.01 581.322,137.361 581.976,135.796"/>
<polyline fill="none" stroke="#00b200" stroke-width="2" points="83.0282,177.788 83.403,180.296 84.1082,183.747 84.8122,185.711 85.5174,186.341 86.2214,185.274 86.9266,182.304 87.6293,178.503 88.3333,174.369 89.0385,169.781 89.7424,164.939 90.4476,159.375 91.1504,151.878 91.8556,142.644 92.5595,134.811 93.2635,130.756 93.9687,129.802 94.6714,130.095 95.3766,129.584 96.0806,126.281 96.7858,119.593 97.4898,112.691 98.195,107.556 98.8977,105.058 99.6017,105.986 100.307,110.137 101.011,116.715 101.716,123.565 102.419,128.009 103.124,130.974 103.828,134.154 104.532,138.034 105.237,142.57 105.94,147.154 106.645,147.788 107.349,145.011 108.054,139.653 108.758,128.455 109.463,110.522 110.166,94.4907 110.87,88.3758 111.575,89.1238 112.279,89.7449 112.984,84.0849 113.687,72.7737 114.392,59.6866 115.096,47.7061 115.8,37.7158 116.505,30.9536 117.208,27.708 117.913,27.1175 118.617,28.1629 119.323,28.1979 120.027,27.1132 120.729,26.0503 121.434,26.5008 122.138,28.8103 122.844,32.5063 123.548,39.6185 124.253,48.9002 124.956,59.4416 125.661,67.866 126.365,72.8174 127.069,75.0481 127.774,75.7524 128.477,79.3784 129.182,84.3386 129.886,91.2845 130.591,101.38 131.295,112.586 131.998,124.335 132.703,130.874 133.407,133.017 134.112,133.402 134.816,135.051 135.521,141.962 136.224,149.319 136.929,158.85 137.633,166.557 138.337,169.951 139.042,172.34 139.745,170.214 140.45,166.426 141.154,161.685 141.859,160.215 142.563,165.949 143.266,171.229 143.971,173.197 144.675,169.212 145.38,165.254 146.084,165.402 146.79,162.822 147.492,161.947 148.196,161.479 148.902,161.693 149.605,163.758 150.311,164.068 151.013,164.073 151.719,158.382 152.423,154.533 153.128,153.426 153.832,151.519 154.534,152.084 155.24,151.152 155.944,153.999 156.649,156.982 157.353,156.786 158.058,153.125 158.761,147.723 159.465,144.337 160.17,141.258 160.874,141.455 161.579,138.253 162.282,136.035 162.987,134.478 163.691,133.385 164.396,132.204 165.1,131.329 165.803,131.749 166.508,133.223 167.212,135.502 167.917,136.569 168.621,135.825 169.326,131.001 170.029,125.231 170.733,119.659 171.438,114.283 172.142,111.646 172.847,113.478 173.55,119.436 174.255,127.532 174.959,136.42 175.662,141.389 176.369,138.948 177.071,133.253 177.776,127.156 178.48,122.931 179.186,119.913 179.89,119.112 180.595,120.149 181.298,121.811 182.001,123.381 182.707,124.755 183.409,125.634 184.116,125.835 184.819,127.738 185.524,133.096 186.228,141.459 186.93,147.696 187.637,151.025 188.34,150.863 189.045,147.933 189.749,142.885 190.454,135.502 191.158,130.31 191.861,128.849 192.566,132.93 193.27,139.241 193.975,144.193 194.678,145.186 195.384,144.241 196.087,142.229 196.792,142.071 197.496,142.653 198.199,141.074 198.905,139.491 199.608,139.198 200.313,139.434 201.017,138.485 201.722,138.432 202.426,140.965 203.129,140.659 203.834,134.99 204.538,127.659 205.243,122.056 205.946,117.778 206.653,112.883 207.355,109.721 208.061,109.231 208.765,112.363 209.467,118.285 210.174,122.878 210.876,128.787 211.582,135.125 212.286,139.101 212.991,139.718 213.694,140.296 214.398,145.544 215.103,152.622 215.807,156.374 216.512,156.619 217.215,156.921 217.921,159.218 218.624,162.647 219.328,167.156 220.033,172.152 220.736,177.505 221.442,183.323 222.145,188.344 222.85,189.656 223.554,187.714 224.259,183.795 224.962,178.223 225.666,173.652 226.371,169.186 227.075,167.178 227.78,165.127 228.483,160.587 229.189,154.778 229.892,147.736 230.596,141.56 231.301,135.738 232.004,131.46 232.709,130.008 233.413,129.041 234.118,125.713 234.822,118.115 235.528,110.351 236.23,105.128 236.934,101.371 237.639,102.399 238.343,109.104 239.049,120.888 239.751,133.678 240.458,141.013 241.161,141.945 241.865,138.59 242.57,135.703 243.272,134.819 243.978,134.784 244.682,136.092 245.387,140.033 246.091,142.902 246.794,138.074 247.499,125.223 248.203,110.438 248.908,97.3557 249.612,90.0073 250.317,86.5518 251.02,83.7218 251.726,80.1395 252.429,73.1061 253.133,61.6942 253.838,48.4366 254.541,36.303 255.246,27.4019 255.95,22.0131 256.655,19.7954 257.359,20.3203 258.062,23.1284 258.767,27.3012 259.471,31.8371 260.176,34.9995 260.88,37.1953 261.585,40.2046 262.288,45.5803 262.993,53.2217 263.697,61.1737 264.401,68.509 265.107,73.6397 265.809,77.4189 266.514,81.478 267.218,85.7164 267.924,91.6563 268.628,99.2103 269.33,106.878 270.036,113.465 270.74,120.857 271.445,130.318 272.149,138.887 272.854,146.235 273.557,152.237 274.261,155.001 274.966,156.842 275.67,159.029 276.375,161.147 277.078,163.858 277.783,164.405 278.487,162.835 279.192,161.995 279.896,161.724 280.599,161.943 281.304,163.885 282.008,167.008 282.713,169.475 283.417,169.23 284.122,166.78 284.825,164.095 285.529,162.761 286.234,161.321 286.938,159.519 287.643,158.526 288.346,158.058 289.051,158.946 289.755,160.438 290.46,160.989 291.164,159.655 291.867,156.278 292.572,153.601 293.276,153.186 293.981,155.753 294.685,157.083 295.391,155.25 296.093,151.992 296.797,147.386 297.503,141.472 298.207,135.703 298.912,133.297 299.614,133.118 300.32,133.49 301.024,136.451 301.728,143.012 302.433,145.623 303.135,143.073 303.841,138.734 304.545,133.336 305.25,127.042 305.954,120.367 306.659,117.704 307.362,119.633 308.066,122.086 308.771,124.921 309.475,125.555 310.18,123.136 310.883,124.273 311.588,127.016 312.292,130.196 312.996,131.959 313.701,134.019 314.404,134.277 315.109,129.597 315.813,123.722 316.518,119.703 317.222,116.479 317.925,114.091 318.63,115.053 319.334,118.933 320.039,123.197 320.743,127.681 321.448,132.269 322.151,136.538 322.856,138.472 323.56,139.639 324.264,140.002 324.97,139.263 325.672,138.642 326.378,137.282 327.081,136.114 327.787,135.707 328.491,137.645 329.193,140.667 329.899,143.493 330.603,146.249 331.308,146.179 332.012,142.189 332.717,137.317 333.42,135.62 334.125,136.32 334.829,138.699 335.533,141.857 336.238,145.671 336.941,148.029 337.646,149.827 338.35,149.114 339.055,146.292 339.759,141.008 340.462,133.927 341.167,128.871 341.871,125.914 342.576,124.431 343.28,121.461 343.985,118.163 344.688,114.13 345.392,112.166 346.097,113.767 346.801,117.896 347.506,124.654 348.209,129.369 348.914,132.807 349.618,135.169 350.323,136.875 351.027,136.691 351.73,135.375 352.435,135.532 353.139,139.744 353.845,148.007 354.548,154.949 355.254,159.629 355.956,163.561 356.66,166.697 357.366,168.854 358.07,170.949 358.775,175.073 359.477,181.582 360.183,188.707 360.887,192.027 361.592,190.094 362.296,185.199 362.999,178.039 363.704,170.21 364.408,165.525 365.113,165.643 365.817,167.345 366.522,168.294 367.225,165.752 367.929,158.758 368.634,148.781 369.337,137.536 370.043,127.913 370.746,120.739 371.451,117.52 372.155,118.023 372.858,119.278 373.564,117.988 374.267,114.616 374.972,111.414 375.676,110.049 376.381,111.366 377.085,117.039 377.79,126.963 378.493,137.063 379.197,144.538 379.902,148.488 380.605,147.215 381.312,141.415 382.014,134.837 382.719,130.157 383.423,129.059 384.126,130.034 384.833,132.339 385.535,132.164 386.241,128.805 386.945,122.813 387.65,112.91 388.352,101.738 389.059,90.5628 389.762,78.9673 390.466,67.4986 391.171,57.0096 391.874,48.0079 392.58,40.1784 393.283,33.1056 393.988,26.9032 394.692,23.0016 395.395,21.9124 396.101,22.761 396.804,25.1886 397.509,28.5653 398.213,32.3226 398.918,36.0099 399.621,39.9641 400.325,44.8586 401.03,50.2474 401.734,56.0124 402.439,60.9813 403.142,65.8714 403.848,71.4483 404.551,77.6376 405.256,84.0455 405.96,90.1692 406.663,96.634 407.369,103.659 408.072,110.845 408.777,118.264 409.481,126.491 410.186,134.316 410.889,141.328 411.593,147.486 412.298,150.588 413.002,151.034 413.708,151.349 414.41,153.868 415.117,156.921 415.819,159.148 416.523,160.923 417.229,162.275 417.931,164.838 418.637,166.002 419.341,164.484 420.046,163.399 420.75,165.477 421.455,167.323 422.158,167.961 422.862,168.009 423.567,165.661 424.271,162.415 424.976,158.015 425.679,154.371 426.385,154.332 427.088,157.652 427.792,162.494 428.497,166.282 429.2,168.364 429.905,166.277 430.609,162.275 431.314,156.497 432.018,151.672 432.723,147.618 433.426,144.718 434.13,143.322 434.835,143.51 435.539,146.026 436.244,146.393 436.947,144.018 437.652,142.636 438.356,142.92 439.06,142.465 439.765,141.647 440.468,141.153 441.173,139.421 441.877,136.293 442.583,132.527 443.286,128.682 443.989,123.534 444.694,119.961 445.398,120.276 446.104,123.031 446.808,125.949 447.513,129.063 448.215,133.057 448.921,135.007 449.625,134.828 450.329,133.214 451.034,131.132 451.737,127.488 452.442,123.136 453.146,120.494 453.851,118.832 454.555,117.695 455.258,117.144 455.963,120.07 456.667,124.737 457.372,129.605 458.076,131.932 458.781,132.584 459.484,133.223 460.189,133.551 460.893,131.74 461.597,131.211 462.302,133.708 463.005,137.912 463.71,142.631 464.414,145.216 465.119,143.506 465.823,138.975 466.526,136.783 467.231,136.648 467.935,136.971 468.64,138.297 469.344,138.992 470.05,139.469 470.752,139.338 471.456,140.046 472.161,141.966 472.865,144.451 473.571,146.804 474.273,149.092 474.979,151.642 475.682,152.788 476.388,149.42 477.092,142.924 477.794,135.471 478.5,129.592 479.204,125.555 479.909,122.9 480.613,121.185 481.318,121.737 482.021,123.302 482.725,122.681 483.43,120.73 484.134,119.217 484.839,118.753 485.542,120.481 486.247,125.721 486.951,132.597 487.656,136.871 488.36,135.742 489.063,131.504 489.768,128.717 490.472,128.941 491.177,132.877 491.881,140.164 492.586,149.442 493.289,159.371 493.993,167.336 494.698,172.357 495.402,173.389 496.107,172.327 496.81,172.252 497.515,173.962 498.219,177.142 498.923,180.222 499.628,183.533 500.331,186.656 501.036,186.127 501.74,180.628 502.446,173.796 503.15,167.305 503.855,163.176 504.557,162.537 505.261,161.925 505.967,158.706 506.671,152.276 507.376,143.97 508.079,134.745 508.784,126.334 509.488,119.79 510.192,114.76 510.897,112.083 511.6,112.319 512.305,116.492 513.009,122.03 513.714,125.809 514.418,128.254 515.123,128.56 515.826,129.409 516.53,131.246 517.235,132.877 517.939,134.828 518.644,136.105 519.347,137.006 520.052,138.441 520.756,141.691 521.46,142.649 522.165,140.453 522.868,139.749 523.573,137.973 524.277,133.839 524.982,129.225 525.686,122.629 526.389,112.267 527.094,99.2147 527.798,85.1959 528.503,72.0126 529.207,61.5936 529.913,52.4475 530.615,44.0275 531.32,37.5059 532.024,32.152 532.728,27.5724 533.434,24.9174 534.136,24.1782 534.842,24.7381 535.546,26.6495 536.251,29.6545 536.955,33.4861 537.657,37.5277 538.363,41.3944 539.067,45.436 539.772,50.7417 540.476,56.5898 541.181,62.1491 541.884,68.1022 542.588,75.2275 543.293,83.5775 543.996,90.5934 544.702,97.1851 545.405,104.149 546.11,111.536 546.814,119.248 547.519,126.36 548.223,133.293 548.926,139.797 549.631,146.2 550.335,149.914 551.04,151.707 551.744,152.219 552.449,152.608 553.152,155.688 553.856,161.195 554.561,166.99 555.264,171.565 555.97,173.949 556.673,174.719 557.378,173.328 558.082,169.68 558.788,166.548 559.491,165.424 560.194,164.418 560.899,162.323 561.603,161.606 562.309,162.323 563.013,165.044 563.718,167.24 564.42,167.988 565.124,167.288 565.83,166.597 566.532,166.207 567.239,164.786 567.942,162.809 568.647,158.986 569.351,153.886 570.053,149.739 570.76,146.857 571.463,144.005 572.168,143.217 572.872,145.028 573.577,148.003 574.28,149.389 574.986,148.702 575.689,147.325 576.393,146.327 577.098,144.648 577.801,139.561 578.507,133.402 579.21,129.321 579.915,126.128 580.619,121.461 581.322,119.156 581.976,121.263"/>
<polyline fill="none" stroke="#000000" stroke-width="0.5" stroke-dasharray="16,0" points="211.389,254.322 453.619,254.322"/>
<polyline fill="none" stroke="#000000" stroke-width="0.5" stroke-dasharray="16,0" points="211.389,238.645 453.619,238.645"/>
<polyline fill="none" stroke="#000000" stroke-width="0.5" stroke-dasharray="16,0" points="211.389,254.322 211.389,238.645"/>
<polyline fill="none" stroke="#000000" stroke-width="0.5" stroke-dasharray="16,0" points="453.619,254.322 453.619,238.645"/>
<text fill="#000000" x="236.826" y="246.484" font-size="10" text-anchor="start" baseline-shift="-5" font-family="Helvetica">Distorsión original</text>
<text fill="#000000" x="357.941" y="246.484" font-size="10" text-anchor="start" baseline-shift="-5" font-family="Helvetica">Distorsión de la red</text>
<polyline fill="none" stroke="#ff0000" stroke-width="2" points="214.067,246.484 234.149,246.484"/>
<polyline fill="none" stroke="#00b200" stroke-width="2" points="335.182,246.484 355.264,246.484"/>
</g>
</svg>
