<?xml version="1.0" encoding="UTF-8" standalone="no"?>
<svg xmlns="http://www.w3.org/2000/svg"
     xmlns:xlink="http://www.w3.org/1999/xlink"
     width="643px" height="258px" viewBox="0 0 643 258">
<title>glps_renderer figure</title>
<desc>
Creator: GL2PS 1.3.8, (C) 1999-2012 C. Geuzaine
For: Octave
CreationDate: Tue Feb  2 23:10:23 2016
</desc>
<defs>
</defs>
<g shape-rendering="crispEdges">
<polygon fill="#ffffff" points="83.5294,202.296 581.48,202.296 83.5294,11.2422"/>
<polygon fill="#ffffff" points="581.48,202.296 581.48,11.2422 83.5294,11.2422"/>
<polygon fill="#ffffff" points="211.389,254.322 453.619,254.322 211.389,238.645"/>
<polygon fill="#ffffff" points="453.619,254.322 453.619,238.645 211.389,238.645"/>
<polyline fill="none" stroke="#000000" stroke-width="0.5" stroke-dasharray="16,0" points="83.5294,202.296 581.48,202.296"/>
<polyline fill="none" stroke="#000000" stroke-width="0.5" stroke-dasharray="16,0" points="83.5294,11.2422 581.48,11.2422"/>
<polyline fill="none" stroke="#000000" stroke-width="0.5" stroke-dasharray="16,0" points="83.5294,202.296 83.5294,11.2422"/>
<polyline fill="none" stroke="#000000" stroke-width="0.5" stroke-dasharray="16,0" points="581.48,202.296 581.48,11.2422"/>
<polyline fill="none" stroke="#000000" stroke-width="0.5" stroke-dasharray="16,0" points="119.238,202.296 119.238,197.316"/>
<polyline fill="none" stroke="#000000" stroke-width="0.5" stroke-dasharray="16,0" points="119.238,11.2422 119.238,16.2231"/>
<polyline fill="none" stroke="#000000" stroke-width="0.5" stroke-dasharray="16,0" points="183.75,202.296 183.75,197.316"/>
<polyline fill="none" stroke="#000000" stroke-width="0.5" stroke-dasharray="16,0" points="183.75,11.2422 183.75,16.2231"/>
<polyline fill="none" stroke="#000000" stroke-width="0.5" stroke-dasharray="16,0" points="248.263,202.296 248.263,197.316"/>
<polyline fill="none" stroke="#000000" stroke-width="0.5" stroke-dasharray="16,0" points="248.263,11.2422 248.263,16.2231"/>
<polyline fill="none" stroke="#000000" stroke-width="0.5" stroke-dasharray="16,0" points="312.775,202.296 312.775,197.316"/>
<polyline fill="none" stroke="#000000" stroke-width="0.5" stroke-dasharray="16,0" points="312.775,11.2422 312.775,16.2231"/>
<polyline fill="none" stroke="#000000" stroke-width="0.5" stroke-dasharray="16,0" points="377.293,202.296 377.293,197.316"/>
<polyline fill="none" stroke="#000000" stroke-width="0.5" stroke-dasharray="16,0" points="377.293,11.2422 377.293,16.2231"/>
<polyline fill="none" stroke="#000000" stroke-width="0.5" stroke-dasharray="16,0" points="441.807,202.296 441.807,197.316"/>
<polyline fill="none" stroke="#000000" stroke-width="0.5" stroke-dasharray="16,0" points="441.807,11.2422 441.807,16.2231"/>
<polyline fill="none" stroke="#000000" stroke-width="0.5" stroke-dasharray="16,0" points="506.32,202.296 506.32,197.316"/>
<polyline fill="none" stroke="#000000" stroke-width="0.5" stroke-dasharray="16,0" points="506.32,11.2422 506.32,16.2231"/>
<polyline fill="none" stroke="#000000" stroke-width="0.5" stroke-dasharray="16,0" points="570.832,202.296 570.832,197.316"/>
<polyline fill="none" stroke="#000000" stroke-width="0.5" stroke-dasharray="16,0" points="570.832,11.2422 570.832,16.2231"/>
<text fill="#000000" x="119.236" y="207.298" font-size="10" text-anchor="middle" baseline-shift="-10" font-family="Helvetica">1.016</text>
<text fill="#000000" x="183.749" y="207.298" font-size="10" text-anchor="middle" baseline-shift="-10" font-family="Helvetica">1.018</text>
<text fill="#000000" x="248.262" y="207.298" font-size="10" text-anchor="middle" baseline-shift="-10" font-family="Helvetica">1.02</text>
<text fill="#000000" x="312.775" y="207.298" font-size="10" text-anchor="middle" baseline-shift="-10" font-family="Helvetica">1.022</text>
<text fill="#000000" x="377.292" y="207.298" font-size="10" text-anchor="middle" baseline-shift="-10" font-family="Helvetica">1.024</text>
<text fill="#000000" x="441.805" y="207.298" font-size="10" text-anchor="middle" baseline-shift="-10" font-family="Helvetica">1.026</text>
<text fill="#000000" x="506.318" y="207.298" font-size="10" text-anchor="middle" baseline-shift="-10" font-family="Helvetica">1.028</text>
<text fill="#000000" x="570.831" y="207.298" font-size="10" text-anchor="middle" baseline-shift="-10" font-family="Helvetica">1.03</text>
<polyline fill="none" stroke="#000000" stroke-width="0.5" stroke-dasharray="16,0" points="83.5294,191.192 88.5087,191.192"/>
<polyline fill="none" stroke="#000000" stroke-width="0.5" stroke-dasharray="16,0" points="581.48,191.192 576.506,191.192"/>
<polyline fill="none" stroke="#000000" stroke-width="0.5" stroke-dasharray="16,0" points="83.5294,152.475 88.5087,152.475"/>
<polyline fill="none" stroke="#000000" stroke-width="0.5" stroke-dasharray="16,0" points="581.48,152.475 576.506,152.475"/>
<polyline fill="none" stroke="#000000" stroke-width="0.5" stroke-dasharray="16,0" points="83.5294,113.759 88.5087,113.759"/>
<polyline fill="none" stroke="#000000" stroke-width="0.5" stroke-dasharray="16,0" points="581.48,113.759 576.506,113.759"/>
<polyline fill="none" stroke="#000000" stroke-width="0.5" stroke-dasharray="16,0" points="83.5294,75.042 88.5087,75.042"/>
<polyline fill="none" stroke="#000000" stroke-width="0.5" stroke-dasharray="16,0" points="581.48,75.042 576.506,75.042"/>
<polyline fill="none" stroke="#000000" stroke-width="0.5" stroke-dasharray="16,0" points="83.5294,36.3253 88.5087,36.3253"/>
<polyline fill="none" stroke="#000000" stroke-width="0.5" stroke-dasharray="16,0" points="581.48,36.3253 576.506,36.3253"/>
<text fill="#000000" x="78.5288" y="191.192" font-size="10" text-anchor="end" baseline-shift="-5" font-family="Helvetica">-0.2</text>
<text fill="#000000" x="78.5288" y="152.475" font-size="10" text-anchor="end" baseline-shift="-5" font-family="Helvetica">-0.1</text>
<text fill="#000000" x="78.5288" y="113.759" font-size="10" text-anchor="end" baseline-shift="-5" font-family="Helvetica">0</text>
<text fill="#000000" x="78.5288" y="75.042" font-size="10" text-anchor="end" baseline-shift="-5" font-family="Helvetica">0.1</text>
<text fill="#000000" x="78.5288" y="36.3253" font-size="10" text-anchor="end" baseline-shift="-5" font-family="Helvetica">0.2</text>
<text fill="#000000" x="332.505" y="220.298" font-size="10" text-anchor="middle" baseline-shift="-10" font-family="Helvetica">Tiempo (s)</text>
<text fill="#000000" x="55.5299" y="106.769" font-size="10" transform="rotate(-90, 55.5299, 106.769)" text-anchor="middle" baseline-shift="0" font-family="Helvetica">Amplitud WAV</text>
<polyline fill="none" stroke="#ff0000" stroke-width="2" points="83.0304,120.836 83.6863,121.356 84.4173,122.786 85.1507,123.825 85.8817,123.932 86.6126,124.511 87.3436,123.731 88.0745,123.79 88.8079,123.057 89.5388,122.36 90.2698,120.895 91.0007,120.245 91.7341,118.579 92.4651,117.398 93.196,115.165 93.927,113.853 94.6579,112.152 95.3914,109.139 96.1223,107.118 96.8532,104.602 97.5842,102.51 98.3152,99.2494 99.0486,97.1699 99.7795,94.8304 100.51,91.8175 101.241,90.1397 101.975,88.0011 102.706,86.6542 103.437,85.7917 104.168,84.9173 104.899,84.0312 105.632,82.9796 106.363,83.1332 107.094,82.6842 107.825,83.1214 108.558,84.5156 109.289,85.6026 110.02,87.1268 110.751,89.738 111.482,93.0345 112.215,96.7327 112.946,100.892 113.677,104.247 114.408,109.328 115.142,114.728 115.873,120.198 116.604,126.212 117.335,131.269 118.063,136.716 118.799,142.104 119.53,147.586 120.261,152.868 120.989,156.909 121.72,161.505 122.456,164.01 123.187,166.715 123.916,169.551 124.646,171.501 125.382,172.339 126.113,172.954 126.842,173.025 127.573,173.675 128.304,173.048 129.04,173.568 129.768,173.379 130.499,173.06 131.23,171.784 131.966,170.91 132.697,169.22 133.425,166.798 134.156,164.151 134.887,160.051 135.623,156.164 136.352,151.296 137.082,146.747 137.813,142.163 138.544,137.33 139.278,132.852 140.009,127.807 140.74,123.802 141.471,120.127 142.204,116.878 142.935,113.463 143.666,111.786 144.397,109.529 145.128,107.296 145.861,106.457 146.592,104.85 147.323,103.255 148.054,102.286 148.787,101.435 149.518,100.183 150.249,99.7457 150.98,98.1151 151.711,97.5716 152.445,96.2247 153.176,94.7005 153.907,94.9013 154.637,92.8336 155.368,91.5221 156.102,89.9507 156.833,88.202 157.564,86.7133 158.295,85.4254 159.028,84.6456 159.759,83.8776 160.49,83.3695 161.221,82.8733 161.952,82.5424 162.685,81.6445 163.416,81.3254 164.147,81.3727 164.878,81.7154 165.612,81.8808 166.342,81.8571 167.073,81.2664 167.804,81.5027 168.533,81.3727 169.269,81.3136 170,81.5499 170.731,81.7035 171.459,80.522 172.195,79.3995 172.926,80.2266 173.657,79.9312 174.388,79.3641 175.116,79.2223 175.852,79.6949 176.583,79.435 177.314,79.305 178.043,79.7894 178.774,79.5295 179.509,80.7465 180.24,81.9044 180.969,82.4597 181.7,83.7831 182.436,86.0634 183.167,87.6349 183.895,90.1161 184.626,92.0302 185.357,95.2322 186.093,96.9454 186.821,99.6984 187.552,103.03 188.283,106.74 189.019,109.931 189.748,111.632 190.479,114.763 191.21,116.819 191.94,119.005 192.674,120.269 193.405,121.651 194.136,122.868 194.867,123.849 195.598,124.912 196.331,124.901 197.062,125.066 197.793,125.669 198.524,125.409 199.257,125.432 199.988,124.629 200.719,123.53 201.45,123.152 202.181,122.195 202.914,121.309 203.645,120.375 204.376,119.324 205.107,118.154 205.841,116.843 206.572,115.531 207.303,115.212 208.034,114.149 208.765,114.456 209.498,113.96 210.229,113.912 210.96,114.716 211.691,115.566 212.422,116.89 213.155,118.308 213.886,119.903 214.617,121.651 215.348,124.629 216.081,126.46 216.812,129.19 217.543,132.273 218.274,134.696 219.005,137.685 219.739,140.651 220.47,143.51 221.201,146.523 221.931,149.914 222.665,151.804 223.396,154.959 224.127,157.806 224.858,160.5 225.586,162.379 226.322,163.797 227.053,166.148 227.784,166.538 228.512,166.562 229.243,167.684 229.979,167.779 230.71,167.802 231.439,167.767 232.17,167.649 232.906,167.743 233.636,166.963 234.367,166.018 235.096,164.293 235.827,163.679 236.563,162.225 237.294,161.056 238.022,159.874 238.753,159.083 239.489,158.007 240.22,157.405 240.948,157.109 241.679,157.346 242.41,157.322 243.146,157.594 243.875,157.83 244.606,158.504 245.337,159.496 246.072,159.461 246.801,159.402 247.532,160.004 248.263,160.111 248.994,159.378 249.727,158.894 250.458,158.645 251.189,157.795 251.92,156.637 252.651,155.243 253.384,153.269 254.115,151.214 254.846,149.323 255.577,147.704 256.311,145.034 257.042,142.588 257.772,138.583 258.503,135.133 259.234,131.895 259.968,127.878 260.699,124.995 261.43,119.985 262.161,116.098 262.894,112.116 263.625,108.619 264.356,105.523 265.087,101.908 265.818,97.9615 266.551,94.2869 267.282,91.085 268.013,86.7841 268.744,83.6176 269.475,79.6477 270.208,76.4811 270.939,73.3973 271.67,69.959 272.401,67.1942 273.135,63.3897 273.866,61.4992 274.597,58.0255 275.328,56.4186 276.059,54.5045 276.792,52.7794 277.523,51.2553 278.254,50.1092 278.985,49.093 279.718,48.266 280.449,47.3798 281.18,46.9663 281.911,45.8793 282.639,45.6075 283.375,45.2294 284.106,44.3315 284.837,44.0833 285.566,43.977 286.297,44.2369 287.033,44.4496 287.763,44.9222 288.492,44.8868 289.223,45.4066 289.959,45.962 290.69,46.2101 291.418,47.0017 292.149,48.3841 292.88,49.5657 293.616,50.3218 294.344,51.7043 295.075,53.7129 295.806,55.8396 296.542,58.8644 297.273,62.5862 298.002,67.2297 298.733,71.6014 299.464,76.7056 300.199,81.4082 300.928,86.3115 301.659,91.3449 302.39,96.8509 303.126,100.49 303.854,105.051 304.585,109.836 305.316,112.79 306.047,115.956 306.78,119.076 307.511,122.018 308.242,124.664 308.973,128.422 309.704,129.887 310.438,131.222 311.169,133.053 311.9,133.845 312.63,135.842 313.364,136.243 314.095,138.252 314.826,139.138 315.557,139.493 316.288,140.237 317.021,140.993 317.752,141.962 318.483,142.104 319.214,143.085 319.947,143.451 320.678,143.049 321.409,144.337 322.14,144.928 322.871,144.845 323.605,144.656 324.336,144.301 325.066,143.971 325.797,143.593 326.528,143.415 327.262,142.919 327.993,142.529 328.724,142.293 329.455,141.844 330.188,141.525 330.919,141.643 331.65,140.922 332.381,139.859 333.109,140.095 333.845,139.894 334.576,139.67 335.307,139.457 336.036,139.138 336.771,138.914 337.502,139.008 338.233,138.583 338.964,137.815 339.693,136.87 340.429,136.066 341.16,135.05 341.891,134.483 342.619,132.203 343.35,129.899 344.086,127.89 344.817,124.877 345.545,122.089 346.276,118.331 347.012,115.129 347.743,112.14 348.472,108.985 349.202,105.228 349.933,101.896 350.669,98.6114 351.398,94.0979 352.129,91.1795 352.86,87.304 353.596,84.7755 354.324,82.5542 355.055,80.0139 355.786,78.2534 356.517,76.6111 357.25,75.8077 357.981,74.508 358.712,73.6927 359.443,73.2673 360.174,73.1019 360.908,73.2792 361.638,73.5864 362.369,73.9526 363.1,74.8624 363.834,76.552 364.565,77.6745 365.296,79.7776 366.027,82.0816 366.758,84.4802 367.491,84.8937 368.222,88.3438 368.953,91.8648 369.684,93.3653 370.417,96.2601 371.148,98.8949 371.879,101.683 372.61,105.157 373.341,107.532 374.074,110.545 374.805,112.92 375.536,115.614 376.267,119.773 377.001,123.282 377.732,125.858 378.463,128.28 379.193,130.277 379.924,131.482 380.658,133.408 381.389,135.924 382.12,137.909 382.851,139.351 383.582,141.04 384.315,141.974 385.046,142.624 385.777,142.789 386.508,143.167 387.241,143.77 387.972,142.848 388.703,142.021 389.434,140.816 390.163,139.753 390.898,137.413 391.629,135.842 392.36,133.656 393.089,131.789 393.825,129.709 394.556,126.732 395.287,125.078 396.015,123.093 396.746,120.647 397.482,118.698 398.213,116.843 398.941,115.673 399.672,114.586 400.403,114.586 401.139,114.054 401.87,114.09 402.599,115.862 403.33,116.441 404.065,117.374 404.796,119.643 405.525,121.876 406.256,124.712 406.987,127.996 407.723,129.887 408.451,132.935 409.182,136.22 409.913,139.434 410.649,141.915 411.377,144.514 412.108,146.724 412.839,148.579 413.57,151.107 414.304,151.899 415.035,152.159 415.766,152.608 416.496,151.828 417.227,150.516 417.961,149.134 418.692,146.121 419.423,143.297 420.154,139.776 420.887,136.515 421.618,131.836 422.349,127.405 423.08,122.49 423.811,118.201 424.544,113.463 425.275,108.584 426.006,104.153 426.737,99.3085 427.47,94.2279 428.201,89.9507 428.932,86.1343 429.663,83.2395 430.394,80.4747 431.128,78.5961 431.859,77.8872 432.59,78.0408 433.321,78.029 434.051,78.9151 434.785,81.2545 435.516,82.3179 436.247,85.5199 436.978,88.5919 437.711,91.1795 438.442,94.5705 439.173,97.2762 439.904,100.833 440.633,104.117 441.368,108.016 442.099,111.537 442.83,114.787 443.561,118.946 444.295,122.975 445.026,126.614 445.757,128.611 446.487,130.82 447.216,132.864 447.952,134.826 448.683,136.409 449.414,136.314 450.142,137.319 450.878,137.614 451.609,137.673 452.34,135.901 453.068,136.291 453.799,134.755 454.535,133.077 455.266,131.612 455.995,128.8 456.726,126.437 457.457,124.806 458.192,122.49 458.921,120.659 459.652,118.828 460.383,116.098 461.119,115.436 461.847,113.132 462.578,112.199 463.309,111.077 464.04,109.836 464.776,108.005 465.504,107.319 466.235,106.173 466.966,105.216 467.702,104.779 468.431,103.834 469.162,103.16 469.893,102.44 470.623,101.506 471.357,100.561 472.088,98.8004 472.819,97.548 473.55,96.0592 474.281,94.4523 475.014,94.1924 475.745,92.2901 476.476,91.5103 477.207,89.9861 477.94,87.8948 478.671,86.4888 479.402,84.6692 480.133,83.4404 480.864,81.4318 481.598,79.7304 482.328,77.58 483.059,75.9613 483.79,74.4843 484.524,73.4918 485.255,72.2276 485.986,72.6884 486.717,72.204 487.448,71.436 488.181,71.5659 488.912,71.6723 489.643,72.2749 490.374,72.9247 491.105,74.5434 491.838,76.4339 492.569,78.3598 493.3,80.6756 494.031,83.6413 494.764,86.8314 495.495,90.1988 496.226,93.838 496.957,97.9024 497.686,101.742 498.422,105.984 499.153,110.297 499.884,114.432 500.612,118.579 501.348,123.53 502.079,127.205 502.81,132.522 503.541,136.35 504.269,140.19 505.005,144.443 505.736,148.65 506.467,153.671 507.195,157.251 507.931,160.772 508.662,164.104 509.393,166.55 510.122,168.535 510.853,170.224 511.589,172.28 512.319,173.426 513.048,174.596 513.779,174.856 514.51,175.612 515.246,176.605 515.974,177.326 516.705,178.129 517.436,177.444 518.172,177.952 518.901,178.424 519.631,177.94 520.362,178.578 521.093,178.672 521.827,178.436 522.558,179.086 523.289,179.228 524.02,179.949 524.755,180.185 525.484,179.677 526.215,179.476 526.946,178.389 527.677,178.696 528.41,178.046 529.141,177.999 529.872,177.361 530.603,176.77 531.334,175.86 532.067,174.124 532.798,173.155 533.529,171.453 534.26,169.681 534.994,166.479 535.725,163.513 536.456,158.326 537.187,152.927 537.917,147.066 538.651,140.851 539.382,134.826 540.113,127.677 540.844,122.041 541.577,114.787 542.308,110.332 543.039,104.826 543.77,98.8359 544.501,93.9797 545.234,88.2138 545.965,83.9839 546.696,80.2148 547.427,76.6229 548.158,73.2792 548.891,70.3017 549.622,67.3124 550.353,65.4101 551.084,62.9052 551.818,60.8139 552.549,60.5776 553.28,57.3993 554.011,56.0287 554.739,54.6699 555.475,53.9728 556.206,52.1887 556.937,50.8417 557.665,49.5893 558.401,48.4905 559.132,48.006 559.863,48.5023 560.592,46.4937 561.323,46.3755 562.058,45.702 562.789,45.5484 563.518,45.5484 564.249,45.0522 564.98,45.0876 565.716,44.5205 566.447,44.2251 567.175,44.4023 567.906,44.8986 568.642,45.0167 569.373,45.0167 570.101,45.7611 570.832,47.2853 571.563,47.9942 572.299,48.6559 573.028,49.9319 573.758,51.4679 574.489,53.5356 575.225,54.6699 575.954,58.8053 576.685,62.4799 577.416,66.2136 578.147,69.9472 578.88,74.5198 579.611,79.1869 580.342,83.5231 581.073,88.2729 581.806,91.6757 581.978,92.8649"/>
<polyline fill="none" stroke="#00b200" stroke-width="2" points="83.0304,116.818 83.6863,116.5 84.4173,117.091 85.1507,116.701 85.8817,118.024 86.6126,120.104 87.3436,122.608 88.0745,121.226 88.8079,121.651 89.5388,121.072 90.2698,121.261 91.0007,121.616 91.7341,120.517 92.4651,121.58 93.196,119.584 93.927,117.693 94.6579,114.692 95.3914,112.672 96.1223,109.422 96.8532,106.126 97.5842,104.661 98.3152,102.463 99.0486,100.596 99.7795,97.0872 100.51,94.0979 101.241,90.6242 101.975,87.8594 102.706,85.4727 103.437,82.4952 104.168,82.1525 104.899,77.8517 105.632,77.1782 106.363,74.1653 107.094,73.6691 107.825,71.1051 108.558,71.0461 109.289,71.5659 110.02,71.6959 110.751,74.3071 111.482,72.9483 112.215,76.3394 112.946,77.769 113.677,81.2782 114.408,85.4845 115.142,88.7691 115.873,94.1924 116.604,98.505 117.335,106.551 118.063,113.192 118.799,122.041 119.53,129.367 120.261,134.27 120.989,141.997 121.72,146.605 122.456,153.435 123.187,157.641 123.916,161.434 124.646,166.798 125.382,169.468 126.113,172.245 126.842,174.832 127.573,177.066 128.304,178.424 129.04,179.57 129.768,181.106 130.499,181.674 131.23,182.323 131.966,181.485 132.697,181.284 133.425,179.949 134.156,178.342 134.887,175.423 135.623,171.288 136.352,168.948 137.082,164.399 137.813,159.874 138.544,155.183 139.278,149.099 140.009,142.458 140.74,137.709 141.471,131.978 142.204,125.385 142.935,120.635 143.666,115.897 144.397,112.412 145.128,107.201 145.861,104.708 146.592,101.754 147.323,99.3557 148.054,97.9024 148.787,94.4405 149.518,94.0506 150.249,92.1247 150.98,91.085 151.711,88.9582 152.445,88.1902 153.176,87.3986 153.907,84.8464 154.637,84.3266 155.368,82.6488 156.102,80.9946 156.833,80.1794 157.564,78.6788 158.295,77.2019 159.028,76.8592 159.759,76.2685 160.49,74.9924 161.221,74.6143 161.952,74.6143 162.685,72.9601 163.416,72.9483 164.147,73.1965 164.878,71.7195 165.612,73.0901 166.342,72.2749 167.073,73.6691 167.804,74.2598 168.533,73.4091 169.269,73.9054 170,75.0278 170.731,76.1149 171.459,75.2523 172.195,77.769 172.926,76.5638 173.657,76.3394 174.388,77.1074 175.116,75.2405 175.852,76.3039 176.583,76.1149 177.314,76.0912 178.043,76.7292 178.774,76.2803 179.509,76.552 180.24,76.9183 180.969,76.9538 181.7,79.175 182.436,80.0966 183.167,80.652 183.895,82.9442 184.626,84.811 185.357,87.2331 186.093,88.8164 186.821,91.7821 187.552,94.5114 188.283,99.4384 189.019,101.931 189.748,104.425 190.479,109.552 191.21,110.923 191.94,116.559 192.674,119.005 193.405,120.883 194.136,125.019 194.867,125.598 195.598,128.41 196.331,129.993 197.062,131.257 197.793,130.501 198.524,131.553 199.257,130.974 199.988,130.3 200.719,131.269 201.45,128.847 202.181,129.65 202.914,128.504 203.645,125.988 204.376,125.669 205.107,125.042 205.841,122.36 206.572,121.651 207.303,119.087 208.034,117.764 208.765,116.382 209.498,115.047 210.229,113.841 210.96,112.955 211.691,113.203 212.422,111.738 213.155,111.585 213.886,112.542 214.617,113.381 215.348,116.24 216.081,116.204 216.812,120.635 217.543,122.632 218.274,125.22 219.005,126.791 219.739,130.111 220.47,132.935 221.201,137.07 221.931,141.064 222.665,144.065 223.396,145.967 224.127,149.181 224.858,151.982 225.586,154.888 226.322,158.527 227.053,161.316 227.784,163.809 228.512,166.857 229.243,168.405 229.979,169.256 230.71,170.035 231.439,171.501 232.17,172.446 232.906,173.769 233.636,172.623 234.367,172.091 235.096,172.162 235.827,169.917 236.563,168.889 237.294,167.85 238.022,167.353 238.753,165.995 239.489,164.258 240.22,162.663 240.948,161.942 241.679,161.15 242.41,160.406 243.146,160.5 243.875,161.316 244.606,161.694 245.337,161.847 246.072,162.285 246.801,162.958 247.532,163.738 248.263,163.927 248.994,164.47 249.727,165.498 250.458,164.577 251.189,164.73 251.92,163.655 252.651,162.769 253.384,162.627 254.115,162.001 254.846,159.118 255.577,158.74 256.311,155.514 257.042,152.986 257.772,151.97 258.503,149.146 259.234,145.294 259.968,143.297 260.699,139.233 261.43,135.239 262.161,131.494 262.894,127.37 263.625,123.53 264.356,117.788 265.087,114.468 265.818,110.12 266.551,104.224 267.282,100.667 268.013,93.4244 268.744,89.5608 269.475,85.2245 270.208,77.7454 270.939,73.3146 271.67,69.2383 272.401,63.3306 273.135,59.2779 273.866,56.6549 274.597,52.0587 275.328,48.3605 276.059,46.4109 276.792,43.5044 277.523,42.0983 278.254,41.0704 278.985,38.5301 279.718,38.1638 280.449,36.8759 281.18,37.3722 281.911,35.2572 282.639,34.5128 283.375,33.8512 284.106,33.225 284.837,34.4892 285.566,33.9693 286.297,36.2733 287.033,35.08 287.763,35.5644 288.492,37.3367 289.223,37.7975 289.959,39.5344 290.69,39.1917 291.418,41.3185 292.149,42.949 292.88,44.745 293.616,47.3089 294.344,49.0812 295.075,50.31 295.806,52.5904 296.542,56.5367 297.273,59.4551 298.002,63.6732 298.733,67.3951 299.464,70.9397 300.199,76.4575 300.928,80.9946 301.659,87.0087 302.39,91.8648 303.126,97.5834 303.854,103.893 304.585,109.493 305.316,115.98 306.047,120.234 306.78,125.338 307.511,129.119 308.242,132.911 308.973,137.07 309.704,140.769 310.438,143.616 311.169,145.589 311.9,147.267 312.63,149.276 313.364,150.906 314.095,151.698 314.826,153.482 315.557,153.766 316.288,154.215 317.021,155.55 317.752,155.443 318.483,155.467 319.214,155.384 319.947,154.51 320.678,154.888 321.409,156.105 322.14,155.361 322.871,155.526 323.605,155.703 324.336,153.518 325.066,155.16 325.797,154.049 326.528,153.47 327.262,153.6 327.993,152.123 328.724,150.883 329.455,149.867 330.188,149.406 330.919,147.87 331.65,147.681 332.381,146.145 333.109,145.424 333.845,145.247 334.576,143.841 335.307,144.089 336.036,142.813 336.771,144.042 337.502,143.604 338.233,142.6 338.964,142.116 339.693,141.289 340.429,140.438 341.16,139.209 341.891,140.119 342.619,139.339 343.35,136.976 344.086,135.664 344.817,133.762 345.545,130.359 346.276,128.351 347.012,125.326 347.743,120.671 348.472,116.323 349.202,113.333 349.933,108.584 350.669,105.653 351.398,99.6629 352.129,94.8423 352.86,90.2461 353.596,85.3899 354.324,83.0859 355.055,79.5531 355.786,76.8001 356.517,72.8893 357.25,70.7979 357.981,67.2297 358.712,66.3435 359.443,66.2017 360.174,63.8032 360.908,64.3585 361.638,62.7516 362.369,64.4649 363.1,63.626 363.834,64.3704 364.565,65.7882 365.296,67.0524 366.027,67.2179 366.758,69.0374 367.491,71.4714 368.222,72.4757 368.953,75.7368 369.684,77.5327 370.417,80.9355 371.148,83.8776 371.879,87.4222 372.61,91.1086 373.341,93.0699 374.074,96.7918 374.805,99.592 375.536,104.058 376.267,106.882 377.001,111.183 377.732,115.436 378.463,118.024 379.193,122.289 379.924,125.751 380.658,129.686 381.389,133.998 382.12,136.456 382.851,139.221 383.582,140.603 384.315,143.096 385.046,144.999 385.777,145.92 386.508,147.492 387.241,147.137 387.972,148.555 388.703,149.264 389.434,149.701 390.163,149.548 390.898,148.165 391.629,145.967 392.36,144.455 393.089,143.663 393.825,139.493 394.556,136.704 395.287,134.648 396.015,130.938 396.746,128.173 397.482,123.388 398.213,120.848 398.941,117.906 399.672,115.46 400.403,113.664 401.139,112.235 401.87,111.065 402.599,108.903 403.33,108.844 404.065,108.607 404.796,108.217 405.525,110.852 406.256,110.486 406.987,113.428 407.723,116.346 408.451,119.962 409.182,123.093 409.913,126.649 410.649,130.572 411.377,133.549 412.108,138.382 412.839,142.104 413.57,145.589 414.304,148.118 415.035,150.375 415.766,153.234 416.496,154.026 417.227,155.455 417.961,155.325 418.692,156.554 419.423,154.888 420.154,153.305 420.887,150.256 421.618,147.007 422.349,141.348 423.08,136.657 423.811,132.025 424.544,125.61 425.275,120.151 426.006,113.841 426.737,106.953 427.47,101.459 428.201,94.7714 428.932,89.6789 429.663,85.0237 430.394,80.6402 431.128,75.9731 431.859,74.1299 432.59,71.0815 433.321,68.4112 434.051,67.915 434.785,64.9848 435.516,64.2404 436.247,66.4499 436.978,66.3435 437.711,69.2501 438.442,73.1256 439.173,76.1503 439.904,78.2771 440.633,83.1923 441.368,87.1268 442.099,91.3803 442.83,97.3353 443.561,100.939 444.295,106.693 445.026,110.84 445.757,114.373 446.487,119.737 447.216,124.381 447.952,128.894 448.683,131.872 449.414,135.31 450.142,136.492 450.878,140.107 451.609,140.899 452.34,141.738 453.068,142.813 453.799,142.34 454.535,141.052 455.266,140.591 455.995,139.705 456.726,137.614 457.457,135.322 458.192,132.9 458.921,130.643 459.652,127.925 460.383,125.669 461.119,122.124 461.847,120.742 462.578,117.268 463.309,115.011 464.04,112.967 464.776,111.289 465.504,109.824 466.235,106.918 466.966,106.563 467.702,103.645 468.431,104.129 469.162,102.215 469.893,101.742 470.623,100.596 471.357,98.1387 472.088,98.9068 472.819,96.2955 473.55,96.2955 474.281,94.5469 475.014,93.9797 475.745,92.8573 476.476,90.2697 477.207,90.5296 477.94,88.0838 478.671,87.1268 479.402,83.8776 480.133,84.362 480.864,82.2589 481.598,82.0462 482.328,80.8647 483.059,77.6627 483.79,76.0912 484.524,74.9097 485.255,73.9172 485.986,72.8302 486.717,72.1212 487.448,69.9 488.181,69.4746 488.912,68.4585 489.643,69.0138 490.374,68.423 491.105,68.423 491.838,69.1201 492.569,71.3769 493.3,71.755 494.031,73.2319 494.764,75.3469 495.495,77.0246 496.226,79.8367 496.957,82.7197 497.686,86.8078 498.422,91.2149 499.153,95.2322 499.884,99.2376 500.612,105.015 501.348,110.888 502.079,115.791 502.81,120.789 503.541,123.79 504.269,130.253 505.005,135.499 505.736,141.608 506.467,146.086 507.195,149.559 507.931,154.569 508.662,158.716 509.393,162.911 510.122,165.912 510.853,167.471 511.589,169.303 512.319,172.245 513.048,173.568 513.779,174.927 514.51,177.444 515.246,178.873 515.974,181.189 516.705,183.729 517.436,185.797 518.172,187.522 518.901,189.295 519.631,190.039 520.362,191.918 521.093,191.811 521.827,192.048 522.558,192.367 523.289,191.599 524.02,192.284 524.755,192.52 525.484,192.556 526.215,192.367 526.946,191.492 527.677,191.008 528.41,191.28 529.141,190.346 529.872,189.484 530.603,188.137 531.334,186.589 532.067,185.254 532.798,183.151 533.529,180.457 534.26,177.219 534.994,173.332 535.725,171.512 536.456,168.074 537.187,162.863 537.917,157.759 538.651,152.879 539.382,147.704 540.113,143.014 540.844,136.184 541.577,129.757 542.308,123.778 543.039,117.551 543.77,110.97 544.501,104.814 545.234,98.8595 545.965,92.5973 546.696,86.7369 547.427,80.3211 548.158,76.0203 548.891,71.7195 549.622,66.4026 550.353,62.5862 551.084,58.9825 551.818,54.15 552.549,51.2553 553.28,48.4077 554.011,45.2412 554.739,42.8545 555.475,40.2197 556.206,38.1402 556.937,36.1079 557.665,34.5601 558.401,34.8437 559.132,32.9178 559.863,32.8587 560.592,32.0907 561.323,30.0348 562.058,31.1927 562.789,30.4838 563.518,31.0864 564.249,30.0584 564.98,29.3968 565.716,29.8694 566.447,30.2829 567.175,31.3582 567.906,31.2164 568.642,31.8544 569.373,32.327 570.101,34.9146 570.832,38.1992 571.563,38.731 572.299,40.5623 573.028,41.9684 573.758,43.6698 574.489,46.7418 575.225,50.4636 575.954,53.701 576.685,56.6667 577.416,61.0502 578.147,65.3156 578.88,70.7034 579.611,75.3114 580.342,78.5016 581.073,82.6488 581.806,87.8357 581.978,89.5127"/>
<polyline fill="none" stroke="#000000" stroke-width="0.5" stroke-dasharray="16,0" points="211.389,254.322 453.619,254.322"/>
<polyline fill="none" stroke="#000000" stroke-width="0.5" stroke-dasharray="16,0" points="211.389,238.645 453.619,238.645"/>
<polyline fill="none" stroke="#000000" stroke-width="0.5" stroke-dasharray="16,0" points="211.389,254.322 211.389,238.645"/>
<polyline fill="none" stroke="#000000" stroke-width="0.5" stroke-dasharray="16,0" points="453.619,254.322 453.619,238.645"/>
<text fill="#000000" x="236.826" y="246.484" font-size="10" text-anchor="start" baseline-shift="-5" font-family="Helvetica">Distorsión original</text>
<text fill="#000000" x="357.941" y="246.484" font-size="10" text-anchor="start" baseline-shift="-5" font-family="Helvetica">Distorsión de la red</text>
<polyline fill="none" stroke="#ff0000" stroke-width="2" points="214.067,246.484 234.149,246.484"/>
<polyline fill="none" stroke="#00b200" stroke-width="2" points="335.182,246.484 355.264,246.484"/>
</g>
</svg>
