<?xml version="1.0" encoding="UTF-8" standalone="no"?>
<svg xmlns="http://www.w3.org/2000/svg"
     xmlns:xlink="http://www.w3.org/1999/xlink"
     width="643px" height="387px" viewBox="0 0 643 387">
<title>glps_renderer figure</title>
<desc>
Creator: GL2PS 1.3.8, (C) 1999-2012 C. Geuzaine
For: Octave
CreationDate: Fri Jan 22 13:31:34 2016
</desc>
<defs>
</defs>
<g shape-rendering="crispEdges">
<polyline fill="none" stroke="#000000" stroke-width="1" points="166.52,343.54 249.512,238.677"/>
<polyline fill="none" stroke="#000000" stroke-width="1" points="166.52,343.54 332.504,238.677"/>
<polyline fill="none" stroke="#000000" stroke-width="1" points="249.512,343.54 249.512,238.677"/>
<polyline fill="none" stroke="#000000" stroke-width="1" points="249.512,343.54 332.504,238.677"/>
<polyline fill="none" stroke="#000000" stroke-width="1" points="332.504,343.54 249.512,238.677"/>
<polyline fill="none" stroke="#000000" stroke-width="1" points="332.504,343.54 332.504,238.677"/>
<polyline fill="none" stroke="#000000" stroke-width="1" points="415.496,343.54 249.512,238.677"/>
<polyline fill="none" stroke="#000000" stroke-width="1" points="415.496,343.54 332.504,238.677"/>
<polyline fill="none" stroke="#000000" stroke-width="1" points="249.512,238.677 208.016,133.813"/>
<polyline fill="none" stroke="#000000" stroke-width="1" points="249.512,238.677 291.008,133.813"/>
<polyline fill="none" stroke="#000000" stroke-width="1" points="249.512,238.677 374,133.813"/>
<polyline fill="none" stroke="#000000" stroke-width="1" points="332.504,238.677 208.016,133.813"/>
<polyline fill="none" stroke="#000000" stroke-width="1" points="332.504,238.677 291.008,133.813"/>
<polyline fill="none" stroke="#000000" stroke-width="1" points="332.504,238.677 374,133.813"/>
<polyline fill="none" stroke="#000000" stroke-width="1" points="208.016,133.813 291.008,28.95"/>
<polyline fill="none" stroke="#000000" stroke-width="1" points="291.008,133.813 291.008,28.95"/>
<polyline fill="none" stroke="#000000" stroke-width="1" points="374,133.813 291.008,28.95"/>
<polygon fill="#000000" points="171.913,347.459 168.58,349.88 173.186,343.54"/>
<polygon fill="#000000" points="168.58,349.88 164.46,349.88 173.186,343.54"/>
<polygon fill="#000000" points="164.46,349.88 161.126,347.459 173.186,343.54"/>
<polygon fill="#000000" points="161.126,347.459 159.853,343.54 173.186,343.54"/>
<polygon fill="#000000" points="159.853,343.54 161.126,339.621 173.186,343.54"/>
<polygon fill="#000000" points="161.126,339.621 164.46,337.2 173.186,343.54"/>
<polygon fill="#000000" points="164.46,337.2 168.58,337.2 173.186,343.54"/>
<polygon fill="#000000" points="168.58,337.2 171.913,339.621 173.186,343.54"/>
<polygon fill="#000000" points="254.905,347.459 251.572,349.88 256.179,343.54"/>
<polygon fill="#000000" points="251.572,349.88 247.452,349.88 256.179,343.54"/>
<polygon fill="#000000" points="247.452,349.88 244.118,347.459 256.179,343.54"/>
<polygon fill="#000000" points="244.118,347.459 242.845,343.54 256.179,343.54"/>
<polygon fill="#000000" points="242.845,343.54 244.118,339.621 256.179,343.54"/>
<polygon fill="#000000" points="244.118,339.621 247.452,337.2 256.179,343.54"/>
<polygon fill="#000000" points="247.452,337.2 251.572,337.2 256.179,343.54"/>
<polygon fill="#000000" points="251.572,337.2 254.905,339.621 256.179,343.54"/>
<polygon fill="#000000" points="337.898,347.459 334.564,349.88 339.171,343.54"/>
<polygon fill="#000000" points="334.564,349.88 330.444,349.88 339.171,343.54"/>
<polygon fill="#000000" points="330.444,349.88 327.111,347.459 339.171,343.54"/>
<polygon fill="#000000" points="327.111,347.459 325.837,343.54 339.171,343.54"/>
<polygon fill="#000000" points="325.837,343.54 327.111,339.621 339.171,343.54"/>
<polygon fill="#000000" points="327.111,339.621 330.444,337.2 339.171,343.54"/>
<polygon fill="#000000" points="330.444,337.2 334.564,337.2 339.171,343.54"/>
<polygon fill="#000000" points="334.564,337.2 337.898,339.621 339.171,343.54"/>
<polygon fill="#000000" points="420.89,347.459 417.556,349.88 422.163,343.54"/>
<polygon fill="#000000" points="417.556,349.88 413.436,349.88 422.163,343.54"/>
<polygon fill="#000000" points="413.436,349.88 410.103,347.459 422.163,343.54"/>
<polygon fill="#000000" points="410.103,347.459 408.83,343.54 422.163,343.54"/>
<polygon fill="#000000" points="408.83,343.54 410.103,339.621 422.163,343.54"/>
<polygon fill="#000000" points="410.103,339.621 413.436,337.2 422.163,343.54"/>
<polygon fill="#000000" points="413.436,337.2 417.556,337.2 422.163,343.54"/>
<polygon fill="#000000" points="417.556,337.2 420.89,339.621 422.163,343.54"/>
<polygon fill="#000000" points="254.905,242.595 251.572,245.017 256.179,238.677"/>
<polygon fill="#000000" points="251.572,245.017 247.452,245.017 256.179,238.677"/>
<polygon fill="#000000" points="247.452,245.017 244.118,242.595 256.179,238.677"/>
<polygon fill="#000000" points="244.118,242.595 242.845,238.677 256.179,238.677"/>
<polygon fill="#000000" points="242.845,238.677 244.118,234.758 256.179,238.677"/>
<polygon fill="#000000" points="244.118,234.758 247.452,232.336 256.179,238.677"/>
<polygon fill="#000000" points="247.452,232.336 251.572,232.336 256.179,238.677"/>
<polygon fill="#000000" points="251.572,232.336 254.905,234.758 256.179,238.677"/>
<polygon fill="#000000" points="337.898,242.595 334.564,245.017 339.171,238.677"/>
<polygon fill="#000000" points="334.564,245.017 330.444,245.017 339.171,238.677"/>
<polygon fill="#000000" points="330.444,245.017 327.111,242.595 339.171,238.677"/>
<polygon fill="#000000" points="327.111,242.595 325.837,238.677 339.171,238.677"/>
<polygon fill="#000000" points="325.837,238.677 327.111,234.758 339.171,238.677"/>
<polygon fill="#000000" points="327.111,234.758 330.444,232.336 339.171,238.677"/>
<polygon fill="#000000" points="330.444,232.336 334.564,232.336 339.171,238.677"/>
<polygon fill="#000000" points="334.564,232.336 337.898,234.758 339.171,238.677"/>
<polygon fill="#000000" points="213.409,137.732 210.076,140.154 214.683,133.813"/>
<polygon fill="#000000" points="210.076,140.154 205.956,140.154 214.683,133.813"/>
<polygon fill="#000000" points="205.956,140.154 202.622,137.732 214.683,133.813"/>
<polygon fill="#000000" points="202.622,137.732 201.349,133.813 214.683,133.813"/>
<polygon fill="#000000" points="201.349,133.813 202.622,129.895 214.683,133.813"/>
<polygon fill="#000000" points="202.622,129.895 205.956,127.473 214.683,133.813"/>
<polygon fill="#000000" points="205.956,127.473 210.076,127.473 214.683,133.813"/>
<polygon fill="#000000" points="210.076,127.473 213.409,129.895 214.683,133.813"/>
<polygon fill="#000000" points="296.401,137.732 293.068,140.154 297.675,133.813"/>
<polygon fill="#000000" points="293.068,140.154 288.948,140.154 297.675,133.813"/>
<polygon fill="#000000" points="288.948,140.154 285.615,137.732 297.675,133.813"/>
<polygon fill="#000000" points="285.615,137.732 284.341,133.813 297.675,133.813"/>
<polygon fill="#000000" points="284.341,133.813 285.615,129.895 297.675,133.813"/>
<polygon fill="#000000" points="285.615,129.895 288.948,127.473 297.675,133.813"/>
<polygon fill="#000000" points="288.948,127.473 293.068,127.473 297.675,133.813"/>
<polygon fill="#000000" points="293.068,127.473 296.401,129.895 297.675,133.813"/>
<polygon fill="#000000" points="379.394,137.732 376.06,140.154 380.667,133.813"/>
<polygon fill="#000000" points="376.06,140.154 371.94,140.154 380.667,133.813"/>
<polygon fill="#000000" points="371.94,140.154 368.607,137.732 380.667,133.813"/>
<polygon fill="#000000" points="368.607,137.732 367.334,133.813 380.667,133.813"/>
<polygon fill="#000000" points="367.334,133.813 368.607,129.895 380.667,133.813"/>
<polygon fill="#000000" points="368.607,129.895 371.94,127.473 380.667,133.813"/>
<polygon fill="#000000" points="371.94,127.473 376.06,127.473 380.667,133.813"/>
<polygon fill="#000000" points="376.06,127.473 379.394,129.895 380.667,133.813"/>
<polygon fill="#000000" points="296.401,32.8686 293.068,35.2904 297.675,28.95"/>
<polygon fill="#000000" points="293.068,35.2904 288.948,35.2904 297.675,28.95"/>
<polygon fill="#000000" points="288.948,35.2904 285.615,32.8686 297.675,28.95"/>
<polygon fill="#000000" points="285.615,32.8686 284.341,28.95 297.675,28.95"/>
<polygon fill="#000000" points="284.341,28.95 285.615,25.0314 297.675,28.95"/>
<polygon fill="#000000" points="285.615,25.0314 288.948,22.6096 297.675,28.95"/>
<polygon fill="#000000" points="288.948,22.6096 293.068,22.6096 297.675,28.95"/>
<polygon fill="#000000" points="293.068,22.6096 296.401,25.0314 297.675,28.95"/>
<text fill="#000000" x="498.488" y="343.54" font-size="10" text-anchor="start" baseline-shift="-5" font-family="Helvetica">4</text>
<text fill="#000000" x="415.496" y="238.677" font-size="10" text-anchor="start" baseline-shift="-5" font-family="Helvetica">2</text>
<text fill="#000000" x="456.992" y="133.813" font-size="10" text-anchor="start" baseline-shift="-5" font-family="Helvetica">3</text>
<text fill="#000000" x="374" y="28.95" font-size="10" text-anchor="start" baseline-shift="-5" font-family="Helvetica">1</text>
</g>
</svg>
